<svg width="30" height="30" viewBox="0 0 30 30" fill="none" xmlns="http://www.w3.org/2000/svg">
<path fill-rule="evenodd" clip-rule="evenodd" d="M23.7373 29.637C23.9977 29.7243 24.3014 29.637 24.5184 29.5061C24.7354 29.3316 24.8655 29.1135 24.9089 28.8081C25.0825 26.234 23.6505 21.2604 24.0411 20.126C24.4316 18.9917 28.4671 15.7632 29.8123 13.5818C29.9859 13.32 29.9859 13.0582 29.8991 12.7965C29.8123 12.5347 29.6388 12.3165 29.335 12.2293C26.9484 11.2695 21.828 11.095 20.83 10.3533C20.0923 9.74248 16.3605 1.49672 14.9286 0.667779C14.6682 0.536894 14.4078 0.798664 14.1909 1.01681C12.5419 2.98008 11.6307 9.61159 10.6327 10.3096C9.67801 11.0077 3.16907 9.82973 0.782462 10.7896C0.522104 10.8768 0.348532 11.095 0.218354 11.3567C0.001389 12.0984 5.20854 17.3774 5.72926 17.9446C6.64051 18.8608 7.33479 19.6025 7.46497 20.0388C7.85551 21.1731 6.42354 26.1904 6.59711 28.7208C6.59711 29.0262 6.77069 29.2443 6.98765 29.4189C7.20462 29.5934 7.50837 29.637 7.76872 29.5497C10.2421 28.939 14.538 26.0159 15.753 26.0159C16.968 26.1031 21.2639 28.9826 23.7373 29.637Z" fill="#FFD400"/>
<path fill-rule="evenodd" clip-rule="evenodd" d="M22.1755 27.5431C22.4359 27.6304 22.7397 27.5431 22.9566 27.4122C23.1736 27.2377 23.3038 27.0196 23.3472 26.7142C23.5207 24.1401 22.0888 19.1665 22.4793 18.0321C22.8698 16.8978 26.9054 13.6693 28.2506 11.4879C28.4241 11.2261 28.4241 10.9643 28.3373 10.7026C28.2506 10.4408 28.077 10.2227 27.7732 10.1354C25.3866 9.17559 20.2663 9.00107 19.2682 8.25939C18.3136 7.56134 16.5345 2.67496 14.8855 0.711686C14.7554 0.449916 14.495 0.319031 14.1912 0.319031C13.8875 0.319031 13.6705 0.449916 13.4536 0.668058C11.848 2.63133 10.0689 7.51771 9.11427 8.21576C8.15963 8.91382 2.99587 9.13196 0.609259 10.0918C0.348902 10.179 0.17533 10.3972 0.0451511 10.659C-0.0416347 10.9207 0.00175821 11.2261 0.131937 11.4443C1.47712 13.6257 5.55605 16.8105 5.9032 17.9885C6.29373 19.1229 4.86177 24.1401 5.03534 26.6706C5.03534 26.976 5.20891 27.1941 5.42587 27.3686C5.64284 27.5431 5.94659 27.5868 6.20695 27.4995C8.68034 26.8887 12.9762 23.9656 14.1912 23.9656C15.4062 24.0092 19.7021 26.9323 22.1755 27.5431Z" fill="url(#paint0_radial_3055_6492)"/>
<path fill-rule="evenodd" clip-rule="evenodd" d="M27.2953 11.313C24.4313 13.3635 22.8258 14.6288 20.309 16.2866C19.9619 16.5048 19.6581 16.9847 19.7883 17.3774C20.526 19.7769 22.6088 23.6162 22.7824 26.0158C22.8692 27.4119 21.6542 26.9756 20.9599 26.7138C18.5299 25.6667 16.881 24.1834 14.5811 23.0054C13.7133 22.5691 13.0624 22.7 12.2813 23.1799C10.8928 24.0961 8.37596 26.3648 6.2931 27.0192C5.6856 27.1937 5.33846 27.1501 5.12149 26.8883C5.16488 27.1065 5.29506 27.281 5.46863 27.4119C5.6856 27.5864 5.98935 27.63 6.24971 27.5428C8.7231 26.932 13.019 24.0089 14.234 24.0089C15.449 24.0089 19.7015 26.8883 22.2183 27.5428C22.4787 27.63 22.7824 27.5428 22.9994 27.4119C23.2163 27.2374 23.3465 27.0192 23.3899 26.7138C23.5635 24.1397 22.1315 19.1661 22.5221 18.0318C22.9126 16.8974 26.9481 13.6689 28.2933 11.4875C28.4669 11.2258 28.4669 10.964 28.3801 10.7022C28.2933 10.4404 28.1197 10.2223 27.816 10.135C25.4294 9.17522 20.309 9.00071 19.311 8.25903C18.3563 7.56097 16.5772 2.6746 14.9283 0.71132C14.7547 0.44955 14.4944 0.318665 14.1906 0.318665C13.8869 0.318665 13.6699 0.44955 13.4529 0.667691C13.1926 0.97309 12.9322 1.36575 12.6719 1.7584C13.4095 1.01672 14.1472 0.536806 14.7981 1.58389C16.0131 3.50353 16.5772 5.5977 17.2281 7.56097C17.662 8.78257 17.879 9.30611 20.2656 9.43699C22.9994 9.6115 25.2992 9.82965 26.9047 10.0914C27.8594 10.2659 27.9028 10.8767 27.2953 11.313Z" fill="url(#paint1_radial_3055_6492)"/>
<g style="mix-blend-mode:plus-lighter">
<path fill-rule="evenodd" clip-rule="evenodd" d="M12.6284 2.32548C11.8473 3.76521 11.153 5.37946 10.4587 6.8192C9.85125 8.08442 9.59089 8.8261 8.07214 9.08787C6.16285 9.4369 4.21016 9.48053 2.30088 9.78593C0.218015 10.135 -0.259307 10.6149 1.25945 12.2727C2.1707 13.2762 6.24963 16.9846 6.50999 17.9008C6.72695 18.6861 6.29303 20.1695 6.24963 21.0857C6.24963 21.522 6.37981 22.1764 7.11749 21.3911C12.7586 15.1522 14.1905 13.9742 22.3918 11.2257C23.2597 10.9203 24.1709 10.7021 25.0822 10.4404C25.3425 10.3531 25.6463 10.135 24.952 10.0041C22.3918 9.65504 20.3523 9.91681 18.1393 9.7423C17.1413 9.65504 16.5338 8.47708 16.23 7.60451C15.5791 5.85938 15.232 3.98336 14.6245 2.23822C14.017 0.842114 13.1491 1.36565 12.6284 2.32548Z" fill="url(#paint2_radial_3055_6492)"/>
</g>
<g style="mix-blend-mode:screen">
<path fill-rule="evenodd" clip-rule="evenodd" d="M6.07619 10.4843C5.55547 10.3971 5.68565 9.82989 6.16297 9.699C6.94405 9.52449 7.76851 9.48086 8.54958 9.30635C9.33066 9.13183 9.85137 8.87006 10.3287 7.86661C11.1532 6.12148 12.021 3.8528 12.9323 2.32581C13.236 1.75864 13.6266 1.8459 13.5398 2.45669C13.2794 4.41997 12.8021 6.33962 12.238 8.30289C11.9776 9.30634 11.6305 10.3534 10.2853 10.5279C9.24387 10.6588 7.11762 10.7025 6.07619 10.4843ZM4.12351 9.82989C3.516 9.87351 2.25761 10.0044 1.51993 10.3098C0.695463 10.5716 0.869035 10.7897 1.60672 10.8333C2.38779 10.877 3.21225 10.877 3.99333 10.8333C5.12154 10.7025 4.99136 9.78626 4.12351 9.82989Z" fill="url(#paint3_radial_3055_6492)"/>
</g>
<g style="mix-blend-mode:screen">
<path fill-rule="evenodd" clip-rule="evenodd" d="M20.2667 25.2309C19.8762 25.3618 19.0083 25.5799 20.0932 26.1907C20.5705 26.4525 21.0478 26.627 21.5685 26.8015C22.6533 27.1069 22.6533 26.3216 22.5232 25.5363C22.2194 24.0093 21.5251 22.1769 20.8308 20.6936C20.5271 19.9955 20.1799 19.6465 20.2667 20.7372C20.3969 21.9588 20.6139 23.1804 20.7441 24.4456C20.7874 24.9255 20.7874 25.0128 20.2667 25.2309Z" fill="url(#paint4_radial_3055_6492)"/>
</g>
<path fill-rule="evenodd" clip-rule="evenodd" d="M5.2525 27.1505C5.55625 27.6741 6.64108 29.1574 7.03161 29.4628C7.24858 29.6374 7.55233 29.681 7.81269 29.5937C10.2861 28.9829 14.582 26.0598 15.797 26.0598C17.012 26.0598 21.2645 28.9393 23.7813 29.5937C24.0416 29.681 24.3454 29.5937 24.5624 29.4628C24.7793 29.2883 24.9095 29.0702 24.9529 28.7648C25.1265 26.1907 23.6945 21.2171 24.085 20.0827C24.4756 18.9484 28.5111 15.7199 29.8563 13.5385C30.0299 13.2767 30.0299 13.015 29.9431 12.7532C29.7695 12.2733 28.5545 10.659 28.164 10.31C28.2074 10.3536 28.3375 10.5718 28.3809 10.659C28.4677 10.9208 28.4243 11.2262 28.2941 11.4443C26.949 13.6258 22.87 16.8106 22.5229 17.9886C22.1324 19.1229 23.5643 24.1402 23.3907 26.6706C23.3907 26.976 23.2172 27.1942 23.0002 27.3687C22.7832 27.5432 22.4795 27.5868 22.2191 27.4996C19.7457 26.8888 15.4498 23.9657 14.2348 23.9657C13.0198 23.9657 8.76733 26.8451 6.25054 27.4996C5.99018 27.5868 5.68643 27.4996 5.46947 27.3687C5.42607 27.3687 5.2525 27.1942 5.2525 27.1505Z" fill="#848484"/>
<path fill-rule="evenodd" clip-rule="evenodd" d="M22.4803 17.9888L24.0424 20.083C24.433 18.905 28.4685 15.7202 29.8137 13.5387C29.9873 13.277 29.9873 13.0152 29.9005 12.7534C29.9005 12.7098 29.8571 12.6225 29.8137 12.5353C29.4665 11.9245 28.4685 10.572 28.1214 10.3102C28.1648 10.3539 28.2949 10.572 28.3383 10.6593C28.4251 10.921 28.3817 11.2264 28.2515 11.4446C28.2082 11.5318 28.1214 11.6627 28.0346 11.75C26.5592 13.9314 22.8274 16.8981 22.4803 17.9888Z" fill="url(#paint5_radial_3055_6492)"/>
<path fill-rule="evenodd" clip-rule="evenodd" d="M24.0424 20.0831L22.4803 17.9889C22.0897 19.1232 23.5217 24.1405 23.3481 26.6709C23.3481 26.9763 23.1746 27.1945 22.9576 27.369L22.9142 27.4126L24.4763 29.5068L24.5197 29.4632C24.7367 29.2886 24.8669 29.0705 24.9103 28.7651C25.0838 26.191 23.6519 21.2174 24.0424 20.0831Z" fill="url(#paint6_radial_3055_6492)"/>
<path fill-rule="evenodd" clip-rule="evenodd" d="M22.1761 27.5434C19.7027 26.9326 15.4068 24.0095 14.1918 24.0095L15.7539 26.1036C16.969 26.1036 21.2215 28.9831 23.6949 29.6375C23.9552 29.6811 24.2156 29.6811 24.4325 29.5066L22.8704 27.4125C22.6534 27.5434 22.4365 27.587 22.1761 27.5434Z" fill="url(#paint7_radial_3055_6492)"/>
<path fill-rule="evenodd" clip-rule="evenodd" d="M7.81269 29.6373C10.2861 29.0265 14.582 26.1034 15.797 26.1034L14.2348 24.0092C13.1066 24.0092 9.20126 26.5833 6.68447 27.4122C6.55429 27.4559 6.38072 27.4995 6.25054 27.5431C5.99018 27.6304 5.68643 27.5431 5.46947 27.4122C5.42607 27.3686 5.2959 27.2377 5.2525 27.1941C5.51286 27.674 6.4675 28.9828 6.94483 29.4191C6.98822 29.4628 7.03161 29.5064 7.07501 29.5064C7.24858 29.6373 7.50893 29.6809 7.81269 29.6373Z" fill="url(#paint8_radial_3055_6492)"/>
<path fill-rule="evenodd" clip-rule="evenodd" d="M16.8823 26.0602C15.8843 25.5802 15.6239 25.5366 14.7127 25.9729C12.6732 26.8891 10.113 28.6779 8.20374 29.1578C7.33588 29.3759 6.94534 29.2887 6.51141 28.9833C6.72838 29.2014 6.90195 29.4195 7.03213 29.5068C7.24909 29.6813 7.55284 29.7249 7.8132 29.6377C10.2866 29.0269 14.5825 26.1038 15.7975 26.1038C17.0125 26.1038 21.265 28.9833 23.7818 29.6377C23.912 29.6813 23.9988 29.6813 24.1289 29.6813C23.5214 29.5941 22.9573 29.2887 22.263 28.9396C20.4839 28.0671 18.4879 26.8455 16.8823 26.0602Z" fill="url(#paint9_radial_3055_6492)"/>
<path fill-rule="evenodd" clip-rule="evenodd" d="M24.6489 18.4684C23.4773 19.6028 23.3905 19.9082 23.6509 21.566C23.998 23.7911 24.5621 26.1906 24.7357 28.4157C24.7791 28.852 24.7357 29.1574 24.6923 29.4191C24.8225 29.2446 24.9093 29.0701 24.9527 28.852C25.1262 26.2779 23.6943 21.3043 24.0848 20.1699C24.4754 19.0356 28.5109 15.8071 29.8561 13.6257C30.0296 13.3639 30.0296 13.1021 29.9429 12.8404C29.8561 12.5786 29.5089 12.055 29.1618 11.5751C29.6391 12.6222 29.5523 13.8002 28.077 15.3272C26.9487 16.3306 25.7771 17.3777 24.6489 18.4684Z" fill="url(#paint10_radial_3055_6492)"/>
<g style="mix-blend-mode:lighten">
<path fill-rule="evenodd" clip-rule="evenodd" d="M28.1643 11.9681C28.9888 11.8372 29.4661 13.0588 29.4227 13.7133C29.4227 13.8878 29.2492 14.1932 29.119 14.4986C29.3793 14.1495 29.6397 13.8441 29.8133 13.5387C29.9868 13.277 29.9868 13.0152 29.9001 12.7534C29.9001 12.7098 29.8567 12.6225 29.8133 12.5353C29.4661 11.9245 28.4681 10.572 28.1209 10.3102C28.1643 10.3539 28.2945 10.572 28.3379 10.6593C28.4247 10.921 28.3813 11.2264 28.2511 11.4446C28.2077 11.5318 28.1209 11.6627 28.0342 11.75C27.9474 11.8809 27.8606 12.0117 27.7738 12.1426C27.904 12.0554 28.0342 11.9681 28.1643 11.9681Z" fill="url(#paint11_radial_3055_6492)"/>
</g>
<g style="mix-blend-mode:lighten">
<path fill-rule="evenodd" clip-rule="evenodd" d="M6.72786 27.9357C6.68447 27.892 6.64108 27.8048 6.64108 27.7611C6.59768 27.6303 6.59768 27.543 6.59768 27.4557C6.4675 27.4994 6.33733 27.543 6.25054 27.543C5.99018 27.6303 5.68643 27.543 5.46947 27.4121C5.42607 27.3685 5.2959 27.2376 5.2525 27.194C5.51286 27.6739 6.4675 28.9827 6.94483 29.419C6.98822 29.4626 7.03161 29.5063 7.07501 29.5063C7.29197 29.6808 7.59572 29.7244 7.85608 29.6372C8.07304 29.5935 8.3334 29.5063 8.59376 29.419C8.29001 29.419 8.02965 29.3318 7.76929 29.07C7.37876 28.6773 7.03161 28.3283 6.72786 27.9357Z" fill="url(#paint12_radial_3055_6492)"/>
</g>
<g style="mix-blend-mode:lighten">
<path fill-rule="evenodd" clip-rule="evenodd" d="M22.3062 27.7614C22.6534 28.1104 22.9137 28.5031 23.1741 28.8957C23.3476 29.1575 23.5212 29.4629 23.391 29.5502C23.5212 29.5938 23.608 29.6374 23.7382 29.6374C23.9985 29.7247 24.3023 29.6374 24.5193 29.5065C24.6928 29.3756 24.823 29.2448 24.8664 29.0266C24.7362 29.0266 24.6494 28.983 24.5193 28.8521C24.2155 28.5031 23.9551 28.1541 23.6948 27.7614C23.3476 27.2815 23.3476 27.2379 23.3476 26.8016C23.3043 27.0197 23.1741 27.2379 22.9571 27.3687C22.7401 27.5433 22.4364 27.5869 22.176 27.4996C22.0893 27.4996 22.0025 27.456 21.9157 27.4124C22.0893 27.5433 22.176 27.6305 22.3062 27.7614Z" fill="url(#paint13_radial_3055_6492)"/>
</g>
<defs>
<radialGradient id="paint0_radial_3055_6492" cx="0" cy="0" r="1" gradientUnits="userSpaceOnUse" gradientTransform="translate(9.04667 5.77794) scale(26.5493 26.6933)">
<stop stop-color="#FCF800"/>
<stop offset="1" stop-color="#FC9700"/>
</radialGradient>
<radialGradient id="paint1_radial_3055_6492" cx="0" cy="0" r="1" gradientUnits="userSpaceOnUse" gradientTransform="translate(12.4949 8.36984) scale(25.3062 25.4435)">
<stop offset="7e-08" stop-color="white"/>
<stop offset="0.0963096" stop-color="#FFFDF9"/>
<stop offset="0.2205" stop-color="#FFF7E9"/>
<stop offset="0.3601" stop-color="#FFECCF"/>
<stop offset="0.5108" stop-color="#FFDEAA"/>
<stop offset="0.6706" stop-color="#FFCC7A"/>
<stop offset="0.8354" stop-color="#FFB641"/>
<stop offset="1" stop-color="#FF9D00"/>
</radialGradient>
<radialGradient id="paint2_radial_3055_6492" cx="0" cy="0" r="1" gradientUnits="userSpaceOnUse" gradientTransform="translate(5.73534 0.691554) scale(23.296 23.4224)">
<stop stop-color="#FFF261"/>
<stop offset="0.1102" stop-color="#FAEE5F"/>
<stop offset="0.2341" stop-color="#EDE15A"/>
<stop offset="0.3647" stop-color="#D6CB52"/>
<stop offset="0.4999" stop-color="#B7AD46"/>
<stop offset="0.6388" stop-color="#8E8736"/>
<stop offset="0.7807" stop-color="#5C5823"/>
<stop offset="0.9223" stop-color="#23210D"/>
<stop offset="1"/>
</radialGradient>
<radialGradient id="paint3_radial_3055_6492" cx="0" cy="0" r="1" gradientUnits="userSpaceOnUse" gradientTransform="translate(5.82277 1.59996) scale(16.8753 16.9668)">
<stop stop-color="#FFFACF"/>
<stop offset="1"/>
</radialGradient>
<radialGradient id="paint4_radial_3055_6492" cx="0" cy="0" r="1" gradientUnits="userSpaceOnUse" gradientTransform="translate(17.1943 24.9601) scale(10.8629 10.9218)">
<stop/>
<stop offset="0.077724" stop-color="#232112"/>
<stop offset="0.2193" stop-color="#5C582E"/>
<stop offset="0.3612" stop-color="#8E8747"/>
<stop offset="0.5001" stop-color="#B7AE5C"/>
<stop offset="0.6353" stop-color="#D6CC6C"/>
<stop offset="0.7659" stop-color="#EDE277"/>
<stop offset="0.8898" stop-color="#FAEF7E"/>
<stop offset="1" stop-color="#FFF380"/>
</radialGradient>
<radialGradient id="paint5_radial_3055_6492" cx="0" cy="0" r="1" gradientUnits="userSpaceOnUse" gradientTransform="translate(20.6944 8.08869) scale(12.3663 12.4334)">
<stop stop-color="#FCAC00"/>
<stop offset="1" stop-color="#FF7300"/>
</radialGradient>
<radialGradient id="paint6_radial_3055_6492" cx="0" cy="0" r="1" gradientUnits="userSpaceOnUse" gradientTransform="translate(14.6087 26.4235) scale(11.3663 11.428)">
<stop stop-color="#FC8F00"/>
<stop offset="1" stop-color="#E86900"/>
</radialGradient>
<radialGradient id="paint7_radial_3055_6492" cx="0" cy="0" r="1" gradientUnits="userSpaceOnUse" gradientTransform="translate(26.8503 17.3341) scale(14.2029 14.28)">
<stop stop-color="#FCAC00"/>
<stop offset="1" stop-color="#FF7300"/>
</radialGradient>
<radialGradient id="paint8_radial_3055_6492" cx="0" cy="0" r="1" gradientUnits="userSpaceOnUse" gradientTransform="translate(6.3089 32.1232) scale(11.3674 11.4291)">
<stop stop-color="#FC8F00"/>
<stop offset="1" stop-color="#E86900"/>
</radialGradient>
<radialGradient id="paint9_radial_3055_6492" cx="0" cy="0" r="1" gradientUnits="userSpaceOnUse" gradientTransform="translate(16.098 20.0763) scale(14.3478 14.4257)">
<stop offset="7e-08" stop-color="white"/>
<stop offset="0.0963096" stop-color="#FEFBF9"/>
<stop offset="0.2205" stop-color="#FBF0E9"/>
<stop offset="0.3601" stop-color="#F6DECF"/>
<stop offset="0.5108" stop-color="#F0C4AA"/>
<stop offset="0.6706" stop-color="#E7A47A"/>
<stop offset="0.8354" stop-color="#DD7C41"/>
<stop offset="1" stop-color="#D15000"/>
</radialGradient>
<radialGradient id="paint10_radial_3055_6492" cx="0" cy="0" r="1" gradientUnits="userSpaceOnUse" gradientTransform="translate(17.0351 17.2372) scale(13.6448 13.7188)">
<stop offset="7e-08" stop-color="white"/>
<stop offset="0.0963096" stop-color="#FEFBF9"/>
<stop offset="0.2205" stop-color="#FBF0E9"/>
<stop offset="0.3601" stop-color="#F6DECF"/>
<stop offset="0.5108" stop-color="#F0C4AA"/>
<stop offset="0.6706" stop-color="#E7A47A"/>
<stop offset="0.8354" stop-color="#DD7C41"/>
<stop offset="1" stop-color="#D15000"/>
</radialGradient>
<radialGradient id="paint11_radial_3055_6492" cx="0" cy="0" r="1" gradientUnits="userSpaceOnUse" gradientTransform="translate(27.7634 8.85196) scale(6.20888 6.24256)">
<stop stop-color="#FFF261"/>
<stop offset="0.1102" stop-color="#FAEE5F"/>
<stop offset="0.2341" stop-color="#EDE15A"/>
<stop offset="0.3647" stop-color="#D6CB52"/>
<stop offset="0.4999" stop-color="#B7AD46"/>
<stop offset="0.6388" stop-color="#8E8736"/>
<stop offset="0.7807" stop-color="#5C5823"/>
<stop offset="0.9223" stop-color="#23210D"/>
<stop offset="1"/>
</radialGradient>
<radialGradient id="paint12_radial_3055_6492" cx="0" cy="0" r="1" gradientUnits="userSpaceOnUse" gradientTransform="translate(5.83362 23.809) scale(6.35767 6.39216)">
<stop stop-color="#FFF261"/>
<stop offset="0.1102" stop-color="#FAEE5F"/>
<stop offset="0.2341" stop-color="#EDE15A"/>
<stop offset="0.3647" stop-color="#D6CB52"/>
<stop offset="0.4999" stop-color="#B7AD46"/>
<stop offset="0.6388" stop-color="#8E8736"/>
<stop offset="0.7807" stop-color="#5C5823"/>
<stop offset="0.9223" stop-color="#23210D"/>
<stop offset="1"/>
</radialGradient>
<radialGradient id="paint13_radial_3055_6492" cx="0" cy="0" r="1" gradientUnits="userSpaceOnUse" gradientTransform="translate(25.8632 24.0018) scale(6.73814 6.77469)">
<stop stop-color="#FFF261"/>
<stop offset="0.1102" stop-color="#FAEE5F"/>
<stop offset="0.2341" stop-color="#EDE15A"/>
<stop offset="0.3647" stop-color="#D6CB52"/>
<stop offset="0.4999" stop-color="#B7AD46"/>
<stop offset="0.6388" stop-color="#8E8736"/>
<stop offset="0.7807" stop-color="#5C5823"/>
<stop offset="0.9223" stop-color="#23210D"/>
<stop offset="1"/>
</radialGradient>
</defs>
</svg>
