<svg width="25" height="26" viewBox="0 0 25 26" fill="none" xmlns="http://www.w3.org/2000/svg">
<path d="M12.5 24.707C18.6873 24.707 23.7031 19.6912 23.7031 13.5039C23.7031 7.31659 18.6873 2.30078 12.5 2.30078C6.31269 2.30078 1.29688 7.31659 1.29688 13.5039C1.29688 19.6912 6.31269 24.707 12.5 24.707Z" fill="#D68F30"/>
<path d="M2.05859 16.4141V17.5586C2.17578 17.8613 2.30664 18.1602 2.44922 18.4492V16.4141H2.05859ZM3.33594 18.5684V19.9434C3.49219 20.1641 3.6543 20.3809 3.82422 20.5898V18.5684H3.33594ZM5.02734 20.3652V21.8477C5.2168 22.0176 5.41211 22.1797 5.61328 22.3359V20.3652H5.02734ZM7.10938 21.7305V23.3242C7.30078 23.4297 7.49609 23.5293 7.69531 23.625V21.7305H7.10938ZM9.4707 22.5996V24.2871C9.66406 24.3418 9.85938 24.3906 10.0566 24.4355V22.5996H9.4707ZM12.2344 22.9004V24.6992C12.3223 24.7012 12.4102 24.7051 12.5 24.7051C12.6074 24.7051 12.7148 24.6992 12.8203 24.6973V22.9004H12.2344ZM14.998 22.5859V24.4219C15.1953 24.377 15.3906 24.3262 15.584 24.2715V22.5859H14.998ZM17.3535 21.7051V23.6016C17.5527 23.5059 17.748 23.4023 17.9395 23.2949V21.7051H17.3535ZM19.4297 20.3281V22.3008C19.6307 22.1436 19.8261 21.9794 20.0156 21.8086V20.3281H19.4297ZM21.6973 18.5254H21.209V20.5469C21.3789 20.3359 21.543 20.1191 21.6973 19.8965V18.5254ZM22.9668 16.3633H22.5762V18.4023C22.7188 18.1074 22.8496 17.8047 22.9668 17.498V16.3633Z" fill="#BC6F00"/>
<path d="M12.5 23.6992C18.6873 23.6992 23.7031 18.6834 23.7031 12.4961C23.7031 6.30878 18.6873 1.29297 12.5 1.29297C6.31269 1.29297 1.29688 6.30878 1.29688 12.4961C1.29688 18.6834 6.31269 23.6992 12.5 23.6992Z" fill="#FFF176"/>
<path d="M12.5 22.7012C18.1361 22.7012 22.7051 18.1322 22.7051 12.4961C22.7051 6.85998 18.1361 2.29102 12.5 2.29102C6.86389 2.29102 2.29492 6.85998 2.29492 12.4961C2.29492 18.1322 6.86389 22.7012 12.5 22.7012Z" fill="#F2BC1A"/>
<path d="M2.27536 12.8867C2.2031 11.543 2.43552 10.1797 2.90427 8.90234C3.39255 7.62891 4.1406 6.45117 5.08396 5.45117C6.97849 3.44727 9.72849 2.28516 12.5 2.27148C15.2715 2.28711 18.0234 3.44727 19.914 5.45312C20.8593 6.45117 21.6054 7.63086 22.0937 8.90234C22.5644 10.1816 22.7968 11.543 22.7226 12.8867H22.6836C22.6795 11.5462 22.4141 10.2194 21.9023 8.98047C21.3895 7.74292 20.6406 6.61713 19.6972 5.66602C18.7533 4.71591 17.6318 3.9607 16.3965 3.44336C15.1614 2.92765 13.8364 2.66211 12.498 2.66211C11.1597 2.66211 9.83459 2.92765 8.59958 3.44336C7.36425 3.9607 6.24271 4.71591 5.2988 5.66602C4.35509 6.61681 3.60606 7.74268 3.09372 8.98047C2.5819 10.2194 2.31653 11.5462 2.31247 12.8867H2.27536Z" fill="#E08F00"/>
<path d="M12.5 1.29492C6.3125 1.29492 1.29688 6.31055 1.29688 12.498C1.29688 18.6855 6.3125 23.7012 12.5 23.7012C18.6875 23.7012 23.7031 18.6855 23.7031 12.498C23.7031 6.31055 18.6875 1.29492 12.5 1.29492ZM12.5 22.7031C6.86328 22.7031 2.29492 18.1348 2.29492 12.498C2.29492 6.85938 6.86328 2.29102 12.5 2.29102C18.1367 2.29102 22.7051 6.85937 22.7051 12.4961C22.7051 18.1328 18.1367 22.7031 12.5 22.7031Z" fill="#FFF176"/>
<path d="M7.41992 4.66992L7.66797 5.4375L8.47656 5.12891V5.4375L7.82227 5.91211L8.07227 6.36914V6.67969L7.41992 6.20508L6.76563 6.67969V6.36914L7.01562 5.91211L6.36328 5.4375V5.12891L7.16992 5.4375L7.41992 4.66992ZM4.29883 9.07617L4.54883 9.84375L5.35547 9.53516V9.84375L4.70313 10.3184L4.95313 10.7773V11.0859L4.29883 10.6113L3.64648 11.0859V10.7773L3.89648 10.3184L3.24219 9.84375V9.53516L4.05078 9.84375L4.29883 9.07617ZM4.20703 14.5078L4.45703 15.2754L5.26367 14.9668V15.2754L4.61133 15.75L4.86133 16.209V16.5176L4.20703 16.043L3.55469 16.5176V16.209L3.80469 15.75L3.15039 15.2754V14.9668L3.95898 15.2754L4.20703 14.5078ZM7.53906 18.8203L7.78906 19.5879L8.5957 19.2793V19.5879L7.94336 20.0625L8.19336 20.5195V20.8301L7.53906 20.3555L6.88672 20.8301V20.5195L7.13672 20.0625L6.48242 19.5879V19.2793L7.29102 19.5879L7.53906 18.8203ZM17.5801 4.66992L17.332 5.4375L16.5234 5.12891V5.4375L17.1777 5.91211L16.9277 6.36914V6.67969L17.5801 6.20508L18.2344 6.67969V6.36914L17.9844 5.91211L18.6367 5.4375V5.12891L17.8301 5.4375L17.5801 4.66992ZM20.7012 9.07617L20.4512 9.84375L19.6445 9.53516V9.84375L20.2969 10.3184L20.0469 10.7773V11.0859L20.7012 10.6113L21.3535 11.0859V10.7773L21.1035 10.3184L21.7578 9.84375V9.53516L20.9492 9.84375L20.7012 9.07617ZM20.793 14.5078L20.543 15.2754L19.7363 14.9668V15.2754L20.3887 15.75L20.1387 16.209V16.5176L20.793 16.043L21.4453 16.5176V16.209L21.1953 15.75L21.8496 15.2754V14.9668L21.041 15.2754L20.793 14.5078ZM17.4609 18.8203L17.2109 19.5879L16.4043 19.2793V19.5879L17.0566 20.0625L16.8066 20.5195V20.8301L17.4609 20.3555L18.1133 20.8301V20.5195L17.8633 20.0625L18.5176 19.5879V19.2793L17.709 19.5879L17.4609 18.8203Z" fill="#D38200"/>
<path d="M17.4609 18.5098L17.709 19.2773H18.5176L17.8633 19.752L18.1133 20.5195L17.4609 20.0449L16.8066 20.5195L17.0566 19.752L16.4043 19.2773H17.2109L17.4609 18.5098ZM20.793 14.1992L21.041 14.9668H21.8496L21.1953 15.4414L21.4453 16.209L20.793 15.7344L20.1387 16.209L20.3887 15.4414L19.7363 14.9668H20.543L20.793 14.1992ZM20.7012 8.76758L20.9492 9.53516H21.7578L21.1035 10.0098L21.3535 10.7773L20.7012 10.3027L20.0469 10.7773L20.2969 10.0098L19.6445 9.53516H20.4512L20.7012 8.76758ZM17.5801 4.35938L17.8301 5.12695H18.6367L17.9844 5.60156L18.2344 6.36914L17.5801 5.89453L16.9277 6.36914L17.1777 5.60156L16.5234 5.12695H17.332L17.5801 4.35938Z" fill="#FFF176"/>
<path d="M12.5098 20.5195L12.7598 21.2871L13.5664 20.9785V21.2871L12.9141 21.7617L13.1641 22.2207V22.5293L12.5098 22.0547L11.8574 22.5293V22.2207L12.1074 21.7617L11.4531 21.2871V20.9785L12.2617 21.2871L12.5098 20.5195Z" fill="#D38200"/>
<path d="M12.5098 20.1094L12.7598 20.877H13.5664L12.9141 21.3516L13.1641 22.1191L12.5098 21.6445L11.8574 22.1191L12.1074 21.3516L11.4531 20.877H12.2617L12.5098 20.1094Z" fill="#FFF176"/>
<path d="M12.5098 3.01758L12.7598 3.78516L13.5664 3.47656V3.78516L12.9141 4.25977L13.1641 4.71875V5.02734L12.5098 4.55273L11.8574 5.02734V4.71875L12.1074 4.25977L11.4531 3.78516V3.47656L12.2617 3.78516L12.5098 3.01758Z" fill="#D38200"/>
<path d="M12.5098 2.70898L12.7598 3.47656H13.5664L12.9141 3.95117L13.1641 4.71875L12.5098 4.24414L11.8574 4.71875L12.1074 3.95117L11.4531 3.47656H12.2617L12.5098 2.70898ZM7.53906 18.5098L7.29102 19.2773H6.48242L7.13672 19.752L6.88672 20.5195L7.53906 20.0449L8.19336 20.5195L7.94336 19.752L8.5957 19.2773H7.78906L7.53906 18.5098ZM4.20703 14.1992L3.95898 14.9668H3.15039L3.80469 15.4414L3.55469 16.209L4.20703 15.7344L4.86133 16.209L4.61133 15.4414L5.26367 14.9668H4.45703L4.20703 14.1992ZM4.29883 8.76758L4.05078 9.53516H3.24219L3.89648 10.0098L3.64648 10.7773L4.29883 10.3027L4.95313 10.7773L4.70313 10.0098L5.35547 9.53516H4.54883L4.29883 8.76758ZM7.41992 4.35938L7.16992 5.12695H6.36328L7.01562 5.60156L6.76562 6.36914L7.41992 5.89453L8.07227 6.36914L7.82227 5.60156L8.47656 5.12695H7.66797L7.41992 4.35938Z" fill="#FFF176"/>
<path d="M18.5977 9.91417C18.5977 9.84581 6.41406 9.91417 6.41406 9.91417L6.30469 10.2423V10.8028C6.30469 10.9044 6.38672 10.9864 6.48828 10.9864H18.5117C18.6133 10.9864 18.6953 10.9044 18.6953 10.8028V10.2579L18.5977 9.91417ZM18.6152 17.1993H6.46484L5.65234 17.6075L5.66211 18.1329C5.66406 18.1896 5.71094 18.2364 5.76953 18.2364H19.2324C19.2891 18.2364 19.3379 18.1915 19.3398 18.1329L19.3496 17.6173L18.6152 17.1993Z" fill="#D38200"/>
<path d="M8.42383 15.6016H7.72461C7.60937 15.6016 7.51562 15.2383 7.51562 15.123L8.63086 15.0879C8.63086 15.2031 8.53711 15.6016 8.42383 15.6016ZM8.66211 11.8301H7.48437C7.39648 11.8301 7.32031 11.7715 7.29492 11.6875L7.20313 10.9199H8.92773L8.84961 11.6875C8.82617 11.7715 8.75 11.8301 8.66211 11.8301ZM7.48437 15.834H8.66211C8.75 15.834 8.92383 15.8887 8.94727 15.9727C8.94727 15.9727 8.94141 16.3379 8.94141 16.4824C8.94141 16.627 8.88281 16.7324 8.75195 16.7324H7.39453C7.26367 16.7324 7.20508 16.6152 7.20508 16.4824C7.20508 16.3496 7.19922 15.9766 7.19922 15.9766C7.22461 15.8926 7.39648 15.834 7.48437 15.834ZM17.5059 15.6016H16.8066C16.6914 15.6016 16.5977 15.2383 16.5977 15.123L17.7129 15.0879C17.7129 15.2031 17.6211 15.6016 17.5059 15.6016ZM17.7441 11.8301H16.5664C16.4785 11.8301 16.4023 11.7715 16.377 11.6875L16.2852 10.9199H18.0098L17.9316 11.6875C17.9082 11.7715 17.832 11.8301 17.7441 11.8301ZM16.5664 15.834H17.7441C17.832 15.834 18.0059 15.8887 18.0293 15.9727C18.0293 15.9727 18.0234 16.3379 18.0234 16.4824C18.0234 16.627 17.9648 16.7324 17.834 16.7324H16.4766C16.3457 16.7324 16.2871 16.6152 16.2871 16.4824C16.2871 16.3496 16.2812 15.9766 16.2812 15.9766C16.3066 15.8926 16.4785 15.834 16.5664 15.834ZM14.4785 15.6016H13.7793C13.6641 15.6016 13.5703 15.2383 13.5703 15.123L14.6855 15.0879C14.6855 15.2031 14.5937 15.6016 14.4785 15.6016ZM14.7168 11.8301H13.5391C13.4512 11.8301 13.375 11.7715 13.3496 11.6875L13.2578 10.9199H14.9824L14.9043 11.6875C14.8809 11.7715 14.8047 11.8301 14.7168 11.8301ZM13.5391 15.834H14.7168C14.8047 15.834 14.9785 15.8887 15.002 15.9727C15.002 15.9727 14.9961 16.3379 14.9961 16.4824C14.9961 16.627 14.9375 16.7324 14.8066 16.7324H13.4492C13.3184 16.7324 13.2598 16.6152 13.2598 16.4824C13.2598 16.3496 13.2539 15.9766 13.2539 15.9766C13.2793 15.8926 13.4512 15.834 13.5391 15.834ZM11.4512 15.6016H10.752C10.6367 15.6016 10.543 15.2383 10.543 15.123L11.6582 15.0879C11.6582 15.2031 11.5664 15.6016 11.4512 15.6016ZM11.6895 11.8301H10.5117C10.4238 11.8301 10.3477 11.7715 10.3223 11.6875L10.2305 10.9199H11.9551L11.877 11.6875C11.8535 11.7715 11.7773 11.8301 11.6895 11.8301ZM10.5117 15.834H11.6895C11.7773 15.834 11.9512 15.8887 11.9746 15.9727C11.9746 15.9727 11.9687 16.3379 11.9687 16.4824C11.9687 16.627 11.9102 16.7324 11.7793 16.7324H10.4219C10.291 16.7324 10.2324 16.6152 10.2324 16.4824C10.2324 16.3496 10.2266 15.9766 10.2266 15.9766C10.252 15.8926 10.4238 15.834 10.5117 15.834Z" fill="#D38200"/>
<path d="M18.6855 9.39063C18.6855 9.32227 18.6504 9.25781 18.5977 9.22656L12.5078 5.76953L6.41016 9.22266C6.35156 9.25781 6.31445 9.32227 6.31445 9.39063L6.30469 10.2441C6.30469 10.3516 6.39258 10.4395 6.5 10.4395H18.498C18.6055 10.4395 18.6934 10.3516 18.6934 10.2441L18.6855 9.39063Z" fill="#FFF176"/>
<path d="M17.1562 9.1582L12.5 6.51562L7.84375 9.1582H17.1562Z" fill="#F2BC1A"/>
<path d="M15.4433 8.83594L12.5 7.16406L9.55662 8.83594H15.4433ZM18.2402 16.5195H6.75974C6.64646 16.5195 6.53904 16.5684 6.46287 16.6523L5.6738 17.5332C5.61912 17.5938 5.66209 17.6895 5.74412 17.6895H19.2558C19.3359 17.6895 19.3789 17.5938 19.3261 17.5332L18.5351 16.6523C18.4609 16.5684 18.3515 16.5195 18.2402 16.5195ZM17.5058 15.248H16.8066C16.6914 15.248 16.5976 15.1543 16.5976 15.0391V11.918C16.5976 11.8027 16.6914 11.709 16.8066 11.709H17.5058C17.6211 11.709 17.7148 11.8027 17.7148 11.918V15.041C17.7148 15.1562 17.6211 15.248 17.5058 15.248ZM17.7461 11.4766H16.5683C16.4804 11.4766 16.4043 11.418 16.3789 11.334L16.289 11.0234C16.2519 10.8984 16.3476 10.7734 16.4785 10.7734H17.8359C17.9668 10.7734 18.0605 10.8984 18.0254 11.0234L17.9355 11.334C17.9101 11.418 17.832 11.4766 17.7461 11.4766ZM16.5664 15.4824H17.7441C17.832 15.4824 17.9082 15.541 17.9336 15.625L18.0234 15.9355C18.0605 16.0605 17.9648 16.1855 17.834 16.1855H16.4765C16.3457 16.1855 16.2519 16.0605 16.2871 15.9355L16.3769 15.625C16.4023 15.5391 16.4804 15.4824 16.5664 15.4824ZM8.4238 15.248H7.72459C7.60935 15.248 7.5156 15.1543 7.5156 15.0391V11.918C7.5156 11.8027 7.60935 11.709 7.72459 11.709H8.4238C8.53904 11.709 8.63279 11.8027 8.63279 11.918V15.041C8.63084 15.1562 8.53709 15.248 8.4238 15.248ZM8.66209 11.4766H7.48435C7.39646 11.4766 7.32029 11.418 7.2949 11.334L7.20505 11.0234C7.16794 10.8984 7.26365 10.7734 7.39451 10.7734H8.75193C8.88279 10.7734 8.97654 10.8984 8.94138 11.0234L8.85154 11.334C8.82615 11.418 8.74998 11.4766 8.66209 11.4766ZM7.48435 15.4824H8.66209C8.74998 15.4824 8.82615 15.541 8.85154 15.625L8.94138 15.9355C8.97849 16.0605 8.88279 16.1855 8.75193 16.1855H7.39451C7.26365 16.1855 7.1699 16.0605 7.20505 15.9355L7.2949 15.625C7.32029 15.5391 7.39646 15.4824 7.48435 15.4824ZM11.4511 15.248H10.7519C10.6367 15.248 10.5429 15.1543 10.5429 15.0391V11.918C10.5429 11.8027 10.6367 11.709 10.7519 11.709H11.4511C11.5664 11.709 11.6601 11.8027 11.6601 11.918V15.041C11.6596 15.0961 11.6374 15.1488 11.5982 15.1875C11.5591 15.2263 11.5062 15.248 11.4511 15.248ZM11.6894 11.4766H10.5117C10.4238 11.4766 10.3476 11.418 10.3222 11.334L10.2324 11.0234C10.1953 10.8984 10.291 10.7734 10.4219 10.7734H11.7793C11.9101 10.7734 12.0039 10.8984 11.9687 11.0234L11.8789 11.334C11.8535 11.418 11.7773 11.4766 11.6894 11.4766ZM10.5117 15.4824H11.6894C11.7773 15.4824 11.8535 15.541 11.8789 15.625L11.9687 15.9355C12.0058 16.0605 11.9101 16.1855 11.7793 16.1855H10.4219C10.291 16.1855 10.1972 16.0605 10.2324 15.9355L10.3222 15.625C10.3476 15.5391 10.4238 15.4824 10.5117 15.4824ZM14.4785 15.248H13.7793C13.664 15.248 13.5703 15.1543 13.5703 15.0391V11.918C13.5703 11.8027 13.664 11.709 13.7793 11.709H14.4785C14.5937 11.709 14.6875 11.8027 14.6875 11.918V15.041C14.687 15.0961 14.6647 15.1488 14.6256 15.1875C14.5864 15.2263 14.5336 15.248 14.4785 15.248ZM14.7168 11.4766H13.539C13.4511 11.4766 13.375 11.418 13.3496 11.334L13.2597 11.0234C13.2226 10.8984 13.3183 10.7734 13.4492 10.7734H14.8066C14.9375 10.7734 15.0312 10.8984 14.9961 11.0234L14.9062 11.334C14.8808 11.418 14.8047 11.4766 14.7168 11.4766ZM13.539 15.4824H14.7168C14.8047 15.4824 14.8808 15.541 14.9062 15.625L14.9961 15.9355C15.0332 16.0605 14.9375 16.1855 14.8066 16.1855H13.4492C13.3183 16.1855 13.2246 16.0605 13.2597 15.9355L13.3496 15.625C13.375 15.5391 13.4531 15.4824 13.539 15.4824Z" fill="#FFF176"/>
</svg>
