<svg width="151" height="50" viewBox="0 0 151 50" fill="none" xmlns="http://www.w3.org/2000/svg">
<g clip-path="url(#clip0_3055_7705)">
<path d="M12.8184 16.2322H50.735V11.1851L31.775 2.90381L12.8184 11.1851V16.2322Z" fill="#516389"/>
<path d="M15.0766 17.5718H23.1882V19.6915H21.9016V34.6864H23.1882V36.7312H15.0766V34.6864H16.5167L16.4655 19.6677H15.0254L15.0766 17.5718Z" fill="#516389"/>
<path d="M27.7289 17.5718H35.8439V19.6915H34.554V34.6864H35.8439V36.7312H27.7289V34.6864H29.169L29.1178 19.6677H27.6777L27.7289 17.5718Z" fill="#516389"/>
<path d="M40.3676 17.5718H48.4792V19.6915H47.1927V34.6864H48.4792V36.7312H40.3676V34.6864H41.8077L41.7565 19.6677H40.3164L40.3676 17.5718Z" fill="#516389"/>
<path d="M50.735 38.2437H12.8184V39.9613H50.735V38.2437Z" fill="#516389"/>
<path d="M53.5162 41.478H10.0371V43.1956H53.5162V41.478Z" fill="#516389"/>
<path d="M61.6388 15.7071H58.9009L58.8862 14.199H61.1849C61.59 14.199 61.9219 14.1478 62.1805 14.0453C62.4392 13.9379 62.632 13.7842 62.7589 13.5841C62.8906 13.3791 62.9565 13.1302 62.9565 12.8374C62.9565 12.5055 62.8931 12.2371 62.7662 12.0321C62.6442 11.8271 62.4514 11.6783 62.1878 11.5855C61.9292 11.4928 61.5949 11.4464 61.1849 11.4464H59.6622V20.385H57.466V9.72607H61.1849C61.8047 9.72607 62.3587 9.78464 62.8467 9.90177C63.3396 10.0189 63.7569 10.197 64.0985 10.4362C64.4402 10.6753 64.7013 10.9779 64.8819 11.3439C65.0624 11.7051 65.1527 12.1346 65.1527 12.6324C65.1527 13.0716 65.0527 13.4767 64.8526 13.8476C64.6574 14.2185 64.3475 14.5211 63.9229 14.7554C63.5031 14.9897 62.9541 15.119 62.2757 15.1434L61.6388 15.7071ZM61.5436 20.385H58.3006L59.1571 18.672H61.5436C61.9292 18.672 62.244 18.611 62.488 18.489C62.732 18.3621 62.9126 18.1912 63.0297 17.9765C63.1469 17.7618 63.2054 17.5153 63.2054 17.2371C63.2054 16.9248 63.1517 16.6539 63.0444 16.4245C62.9419 16.1951 62.7759 16.0194 62.5466 15.8974C62.3172 15.7705 62.0146 15.7071 61.6388 15.7071H59.5231L59.5378 14.199H62.1732L62.6783 14.792C63.3274 14.7822 63.8496 14.8969 64.245 15.1361C64.6452 15.3703 64.9356 15.6754 65.1161 16.0512C65.3016 16.427 65.3943 16.8296 65.3943 17.2591C65.3943 17.9423 65.2455 18.5182 64.9478 18.9868C64.65 19.4504 64.2132 19.7994 63.6373 20.0336C63.0663 20.2679 62.3684 20.385 61.5436 20.385Z" fill="#516389"/>
<path d="M71.3753 11.5489L68.4763 20.385H66.141L70.1015 9.72607H71.5876L71.3753 11.5489ZM73.7838 20.385L70.8775 11.5489L70.6433 9.72607H72.144L76.1265 20.385H73.7838ZM73.6521 16.4172V18.1376H68.0224V16.4172H73.6521Z" fill="#516389"/>
<path d="M85.7898 9.72607V20.385H83.5936L79.311 13.24V20.385H77.1148V9.72607H79.311L83.6009 16.8784V9.72607H85.7898Z" fill="#516389"/>
<path d="M89.8967 9.72607V20.385H87.7005V9.72607H89.8967ZM96.2804 9.72607L92.0563 14.9897L89.6185 17.6105L89.2232 15.5314L90.8704 13.2766L93.5863 9.72607H96.2804ZM93.784 20.385L90.6434 15.4582L92.2686 14.0965L96.3828 20.385H93.784Z" fill="#516389"/>
<path d="M62.2318 30.6693V41.3282H60.0429V30.6693H62.2318ZM65.5114 30.6693V32.3896H56.8145V30.6693H65.5114Z" fill="#516389"/>
<path d="M66.7633 30.6693H70.7384C71.5535 30.6693 72.2538 30.7913 72.8395 31.0353C73.43 31.2793 73.8839 31.6405 74.2011 32.1188C74.5183 32.5971 74.677 33.1852 74.677 33.8831C74.677 34.4541 74.5794 34.9446 74.3841 35.3545C74.1938 35.7596 73.9229 36.0988 73.5715 36.3721C73.225 36.6405 72.8175 36.8553 72.349 37.0163L71.6535 37.3824H68.1981L68.1835 35.6693H70.7531C71.1386 35.6693 71.4583 35.601 71.7121 35.4643C71.9659 35.3277 72.1562 35.1373 72.2831 34.8933C72.4149 34.6493 72.4808 34.3662 72.4808 34.0441C72.4808 33.7025 72.4173 33.4072 72.2904 33.1583C72.1635 32.9094 71.9707 32.7191 71.7121 32.5873C71.4534 32.4555 71.1289 32.3896 70.7384 32.3896H68.9595V41.3282H66.7633V30.6693ZM72.7223 41.3282L70.2919 36.5771L72.6125 36.5624L75.0723 41.2257V41.3282H72.7223Z" fill="#516389"/>
<path d="M80.7019 32.4921L77.8029 41.3282H75.4676L79.4281 30.6693H80.9142L80.7019 32.4921ZM83.1104 41.3282L80.2041 32.4921L79.9698 30.6693H81.4706L85.453 41.3282H83.1104ZM82.9786 37.3604V39.0808H77.349V37.3604H82.9786Z" fill="#516389"/>
<path d="M95.1164 30.6693V41.3282H92.9201L88.6375 34.1832V41.3282H86.4413V30.6693H88.6375L92.9275 37.8216V30.6693H95.1164Z" fill="#516389"/>
<path d="M102.576 38.539C102.576 38.3487 102.547 38.1779 102.488 38.0266C102.435 37.8704 102.332 37.7289 102.181 37.602C102.03 37.4702 101.817 37.3409 101.544 37.214C101.271 37.0871 100.917 36.9553 100.482 36.8187C99.9993 36.6625 99.5405 36.4868 99.1061 36.2916C98.6767 36.0964 98.296 35.8694 97.9641 35.6108C97.6371 35.3472 97.3785 35.0422 97.1881 34.6957C97.0027 34.3491 96.9099 33.9465 96.9099 33.4877C96.9099 33.0436 97.0075 32.641 97.2028 32.2798C97.398 31.9138 97.6713 31.6014 98.0227 31.3428C98.3741 31.0792 98.7889 30.8767 99.2672 30.7352C99.7504 30.5936 100.28 30.5229 100.856 30.5229C101.642 30.5229 102.327 30.6644 102.913 30.9475C103.499 31.2305 103.952 31.6185 104.275 32.1115C104.602 32.6044 104.765 33.1681 104.765 33.8025H102.583C102.583 33.4902 102.518 33.2169 102.386 32.9826C102.259 32.7435 102.064 32.5556 101.8 32.4189C101.541 32.2823 101.215 32.2139 100.819 32.2139C100.439 32.2139 100.121 32.2725 99.8675 32.3896C99.6137 32.5019 99.4234 32.6556 99.2965 32.8508C99.1696 33.0412 99.1061 33.2559 99.1061 33.4951C99.1061 33.6756 99.1501 33.8391 99.2379 33.9856C99.3306 34.132 99.4673 34.2686 99.6479 34.3955C99.8284 34.5224 100.051 34.642 100.314 34.7542C100.578 34.8665 100.883 34.9763 101.229 35.0837C101.81 35.2594 102.32 35.457 102.759 35.6766C103.203 35.8963 103.574 36.1427 103.872 36.416C104.17 36.6893 104.394 36.9992 104.545 37.3458C104.697 37.6923 104.772 38.0851 104.772 38.5244C104.772 38.988 104.682 39.4029 104.501 39.7689C104.321 40.1349 104.06 40.4449 103.718 40.6986C103.377 40.9524 102.969 41.1452 102.496 41.277C102.022 41.4087 101.493 41.4746 100.907 41.4746C100.38 41.4746 99.8602 41.4063 99.3477 41.2697C98.8353 41.1281 98.3692 40.9158 97.9495 40.6328C97.5346 40.3497 97.2028 39.9885 96.9539 39.5493C96.705 39.11 96.5805 38.5903 96.5805 37.99H98.784C98.784 38.3218 98.8353 38.6025 98.9378 38.8319C99.0403 39.0612 99.1842 39.2467 99.3697 39.3882C99.56 39.5298 99.7845 39.6323 100.043 39.6957C100.307 39.7591 100.595 39.7909 100.907 39.7909C101.288 39.7909 101.6 39.7372 101.844 39.6298C102.093 39.5224 102.276 39.3736 102.393 39.1833C102.515 38.9929 102.576 38.7782 102.576 38.539Z" fill="#516389"/>
<path d="M108.462 30.6693V41.3282H106.266V30.6693H108.462ZM112.708 35.2228V36.9358H107.862V35.2228H112.708ZM113.22 30.6693V32.3896H107.862V30.6693H113.22Z" fill="#516389"/>
<path d="M121.647 39.6152V41.3282H115.973V39.6152H121.647ZM116.69 30.6693V41.3282H114.494V30.6693H116.69ZM120.907 35.0105V36.6796H115.973V35.0105H120.907ZM121.639 30.6693V32.3896H115.973V30.6693H121.639Z" fill="#516389"/>
<path d="M122.928 30.6693H126.903C127.718 30.6693 128.418 30.7913 129.004 31.0353C129.594 31.2793 130.048 31.6405 130.366 32.1188C130.683 32.5971 130.841 33.1852 130.841 33.8831C130.841 34.4541 130.744 34.9446 130.549 35.3545C130.358 35.7596 130.087 36.0988 129.736 36.3721C129.389 36.6405 128.982 36.8553 128.513 37.0163L127.818 37.3824H124.363L124.348 35.6693H126.917C127.303 35.6693 127.623 35.601 127.876 35.4643C128.13 35.3277 128.321 35.1373 128.448 34.8933C128.579 34.6493 128.645 34.3662 128.645 34.0441C128.645 33.7025 128.582 33.4072 128.455 33.1583C128.328 32.9094 128.135 32.7191 127.876 32.5873C127.618 32.4555 127.293 32.3896 126.903 32.3896H125.124V41.3282H122.928V30.6693ZM128.887 41.3282L126.456 36.5771L128.777 36.5624L131.237 41.2257V41.3282H128.887Z" fill="#516389"/>
<path d="M138.082 38.539C138.082 38.3487 138.052 38.1779 137.994 38.0266C137.94 37.8704 137.838 37.7289 137.686 37.602C137.535 37.4702 137.323 37.3409 137.049 37.214C136.776 37.0871 136.422 36.9553 135.988 36.8187C135.505 36.6625 135.046 36.4868 134.612 36.2916C134.182 36.0964 133.801 35.8694 133.47 35.6108C133.143 35.3472 132.884 35.0422 132.694 34.6957C132.508 34.3491 132.415 33.9465 132.415 33.4877C132.415 33.0436 132.513 32.641 132.708 32.2798C132.903 31.9138 133.177 31.6014 133.528 31.3428C133.879 31.0792 134.294 30.8767 134.773 30.7352C135.256 30.5936 135.785 30.5229 136.361 30.5229C137.147 30.5229 137.833 30.6644 138.418 30.9475C139.004 31.2305 139.458 31.6185 139.78 32.1115C140.107 32.6044 140.27 33.1681 140.27 33.8025H138.089C138.089 33.4902 138.023 33.2169 137.891 32.9826C137.764 32.7435 137.569 32.5556 137.306 32.4189C137.047 32.2823 136.72 32.2139 136.325 32.2139C135.944 32.2139 135.627 32.2725 135.373 32.3896C135.119 32.5019 134.929 32.6556 134.802 32.8508C134.675 33.0412 134.612 33.2559 134.612 33.4951C134.612 33.6756 134.655 33.8391 134.743 33.9856C134.836 34.132 134.973 34.2686 135.153 34.3955C135.334 34.5224 135.556 34.642 135.819 34.7542C136.083 34.8665 136.388 34.9763 136.735 35.0837C137.315 35.2594 137.825 35.457 138.265 35.6766C138.709 35.8963 139.08 36.1427 139.377 36.416C139.675 36.6893 139.9 36.9992 140.051 37.3458C140.202 37.6923 140.278 38.0851 140.278 38.5244C140.278 38.988 140.187 39.4029 140.007 39.7689C139.826 40.1349 139.565 40.4449 139.224 40.6986C138.882 40.9524 138.474 41.1452 138.001 41.277C137.528 41.4087 136.998 41.4746 136.412 41.4746C135.885 41.4746 135.366 41.4063 134.853 41.2697C134.341 41.1281 133.875 40.9158 133.455 40.6328C133.04 40.3497 132.708 39.9885 132.459 39.5493C132.21 39.11 132.086 38.5903 132.086 37.99H134.289C134.289 38.3218 134.341 38.6025 134.443 38.8319C134.546 39.0612 134.69 39.2467 134.875 39.3882C135.065 39.5298 135.29 39.6323 135.549 39.6957C135.812 39.7591 136.1 39.7909 136.412 39.7909C136.793 39.7909 137.105 39.7372 137.349 39.6298C137.598 39.5224 137.781 39.3736 137.899 39.1833C138.021 38.9929 138.082 38.7782 138.082 38.539Z" fill="#516389"/>
</g>
<defs>
<clipPath id="clip0_3055_7705">
<rect width="131" height="44.2102" fill="white" transform="translate(10 2.89502)"/>
</clipPath>
</defs>
</svg>
