<svg width="151" height="54" viewBox="0 0 151 54" fill="none" xmlns="http://www.w3.org/2000/svg">
<path d="M121.382 15.2344C128.168 15.2344 133.671 20.7359 133.671 27.5225C133.671 34.3093 128.169 39.8115 121.382 39.8115C114.595 39.8113 109.094 34.3091 109.094 27.5225C109.094 20.7361 114.595 15.2346 121.382 15.2344ZM115.697 23.4541H119.875V25.2666C116.486 25.4242 113.944 26.0945 113.943 26.9023C113.943 27.7104 116.486 28.3814 119.875 28.5391V34.3721H122.89V28.5391C126.279 28.3814 128.821 27.7104 128.821 26.9023C128.801 26.1142 126.259 25.4242 122.89 25.2666V23.4541H127.048V20.6748H115.697V23.4541ZM122.89 25.4834C125.885 25.6214 128.111 26.134 128.111 26.7646C128.111 27.3953 125.865 27.9079 122.89 28.0459C122.811 28.0459 122.358 28.0849 121.393 28.085C120.605 28.085 120.072 28.0656 119.875 28.0459C116.88 27.9079 114.653 27.3953 114.653 26.7646C114.654 26.134 116.88 25.6214 119.875 25.4834V27.5137C120.072 27.5334 120.624 27.5527 121.412 27.5527C122.338 27.5527 122.811 27.5137 122.89 27.5137V25.4834Z" fill="#516389"/>
<circle cx="121.625" cy="27.6032" r="12.0192" stroke="#516389" stroke-width="0.686813"/>
<g clip-path="url(#clip0_3055_7665)">
<g clip-path="url(#clip1_3055_7665)">
<path d="M31.7693 15.2354C38.4723 15.2354 43.906 20.6691 43.9061 27.3721C43.9061 34.0751 38.4723 39.5088 31.7693 39.5088C25.0664 39.5087 19.6326 34.075 19.6326 27.3721C19.6327 20.6692 25.0665 15.2354 31.7693 15.2354ZM34.8611 18.876C34.2715 18.8726 33.6101 19.0068 33.0867 19.333L32.8826 19.4619C31.8903 20.1369 31.3095 21.2512 31.3094 22.4219C31.3094 23.0778 31.5724 23.7394 31.9022 24.3291C32.1655 24.8558 32.2949 25.7749 31.3758 26.2354C30.72 26.6278 29.8622 26.3663 29.4695 25.709C29.077 25.1823 28.6162 24.6553 28.0233 24.2627C26.9068 23.6068 25.589 23.6068 24.4725 24.2627C23.3562 24.9186 22.6971 26.1063 22.6971 27.3555C22.6972 28.6046 23.353 29.7887 24.4725 30.4463C25.5888 31.1021 26.9058 31.102 28.0223 30.4463C28.6153 30.1167 29.0758 29.593 29.4022 29C29.6655 28.5395 30.3901 27.9469 31.3094 28.4736C31.9651 28.8662 32.162 29.7241 31.8358 30.3799C31.5062 30.9728 31.3094 31.6304 31.3094 32.2861C31.3094 33.5368 31.9652 34.72 33.0867 35.376C34.203 36.0317 35.5201 36.0317 36.6365 35.376C37.7531 34.7201 38.4139 33.5351 38.4139 32.2861C38.4138 31.0373 37.7563 29.8529 36.6365 29.1953C36.0435 28.8658 35.386 28.7354 34.6639 28.7354C34.0708 28.7354 33.2841 28.3426 33.284 27.3555C33.284 26.5654 33.8771 25.9756 34.6639 25.9756C35.3198 25.9756 36.0435 25.8442 36.6365 25.5146C37.753 24.8588 38.4139 23.6747 38.4139 22.4258C38.4139 21.1769 37.7564 19.9929 36.6365 19.3369C36.1098 19.0073 35.454 18.876 34.8611 18.876Z" fill="#516389"/>
<circle cx="31.652" cy="27.6042" r="12.0192" stroke="#516389" stroke-width="0.686813"/>
</g>
</g>
<g clip-path="url(#clip2_3055_7665)">
<path d="M99.7529 13.2686C107.625 13.2686 114.008 19.6509 114.008 27.5234C114.008 35.396 107.625 41.7782 99.7529 41.7783C91.8803 41.7783 85.4982 35.396 85.498 27.5234C85.498 19.6508 91.8802 13.2686 99.7529 13.2686ZM95.5186 27.5186L93.8203 28.1387L93.2598 30.251L94.9561 29.6318L93.7578 34.1338H105.492L106.244 31.332H98.9189L99.8447 27.8457L102.037 27.0439L102.582 24.9951L102.563 24.9443L100.406 25.7334L101.961 19.8789H97.5518L95.5186 27.5186Z" fill="#516389"/>
<circle cx="99.8213" cy="27.7802" r="14.2548" stroke="#516389" stroke-width="0.686813"/>
</g>
<g clip-path="url(#clip3_3055_7665)">
<path d="M51.5828 13.2686C59.4554 13.2686 65.8377 19.6508 65.8377 27.5234C65.8376 35.396 59.4554 41.7782 51.5828 41.7783C43.7102 41.7783 37.328 35.396 37.3279 27.5234C37.3279 19.6508 43.7101 13.2686 51.5828 13.2686ZM52.0252 32.8408V32.8398L45.3455 28.9639L52.0252 38.2109L58.7088 28.9639L52.0252 32.8408ZM52.0252 24.7373L45.3455 27.7197L52.0252 31.5986L58.7049 27.7197L52.0252 24.7373ZM45.3455 27.7188L52.0252 24.7344L58.7049 27.7188L52.0252 16.832L45.3455 27.7188Z" fill="#516389"/>
<circle cx="51.745" cy="27.7802" r="14.2548" stroke="#516389" stroke-width="0.686813"/>
</g>
<g clip-path="url(#clip4_3055_7665)">
<path d="M60.4092 24.211C62.5107 15.7801 71.0396 10.6553 79.4707 12.7569C87.8896 14.8462 93.0275 23.3873 90.9258 31.8184C88.8242 40.2493 80.2822 45.3742 71.8633 43.2725C63.4322 41.1709 58.3075 32.6297 60.4092 24.211ZM74.873 20.8799C74.4921 20.7939 74.123 20.7081 73.7666 20.6221V20.6094L71.3828 20.0196L70.9277 21.8633C70.9277 21.8633 72.176 22.1513 72.1816 22.1699C72.8819 22.3419 73.0049 22.8092 72.9805 23.1778L72.1689 26.4102C72.2181 26.4225 72.2798 26.4348 72.3535 26.4717C72.2921 26.4594 72.2304 26.4465 72.1689 26.4219L71.0391 30.9444C70.953 31.1533 70.7312 31.4725 70.2519 31.3496C70.2641 31.374 69.0172 31.0478 68.999 31.043L68.1387 33.0215L70.3877 33.5869C70.8054 33.6975 71.2108 33.7957 71.6162 33.9063L70.9033 36.7696L72.624 37.1992L73.3369 34.3604C73.8038 34.4832 74.2706 34.6062 74.7129 34.7168L74.0127 37.543L75.7334 37.9737L76.4453 35.1104C79.3945 35.6634 81.6067 35.442 82.5283 32.7754C83.2779 30.6372 82.4917 29.396 80.9434 28.585C82.0861 28.3269 82.934 27.5774 83.1553 26.0537C83.4625 23.9647 81.8768 22.8336 79.6894 22.084L80.4023 19.2461L78.6826 18.8155L77.9941 21.5801C77.5395 21.4695 77.0724 21.3591 76.6055 21.2608L77.2939 18.4834L75.5732 18.0537L74.873 20.8799ZM74.8486 28.4746C76.0165 28.7696 79.7755 29.3472 79.2109 31.583C78.6826 33.7211 75.0701 32.5666 73.9023 32.2715L74.8486 28.4746ZM76.1504 23.2891C77.1212 23.5349 80.2548 23.989 79.751 26.0166C79.2595 27.9702 76.2622 26.9755 75.291 26.7295L76.1504 23.2891Z" fill="#516389"/>
<circle cx="75.8804" cy="27.8794" r="15.728" stroke="#516389" stroke-width="0.686813"/>
</g>
<defs>
<clipPath id="clip0_3055_7665">
<rect width="25.4121" height="25.4121" fill="white" transform="translate(18.9453 14.8984)"/>
</clipPath>
<clipPath id="clip1_3055_7665">
<rect width="26.7857" height="25.4121" fill="white" transform="translate(17.5723 14.8984)"/>
</clipPath>
<clipPath id="clip2_3055_7665">
<rect width="29.533" height="30.2198" fill="white" transform="translate(85.5664 12.8379)"/>
</clipPath>
<clipPath id="clip3_3055_7665">
<rect width="28.8462" height="30.2198" fill="white" transform="translate(36.8027 12.8379)"/>
</clipPath>
<clipPath id="clip4_3055_7665">
<rect width="32.967" height="32.967" fill="white" transform="translate(59.4668 11.4639)"/>
</clipPath>
</defs>
</svg>
