<svg width="151" height="50" viewBox="0 0 151 50" fill="none" xmlns="http://www.w3.org/2000/svg">
<g clip-path="url(#clip0_3055_7721)">
<path fill-rule="evenodd" clip-rule="evenodd" d="M54.4911 0H96.5896C98.8181 0 100.625 1.79473 100.625 4.00865V45.9614C100.625 48.1753 98.8181 49.9701 96.5896 49.9701H54.4911C52.2626 49.9701 50.4561 48.1753 50.4561 45.9614V4.00865C50.4561 1.79473 52.2626 0 54.4911 0ZM55.3235 16.6221V30.8892L52.7438 31.4925V17.1574L55.3235 16.6221ZM59.2547 28.5531V24.2274C59.257 23.8322 59.3824 23.3344 59.6575 22.9736C60.0901 22.4064 61.0883 22.0705 61.3584 22.9067C61.4664 23.2411 61.4655 23.4468 61.4641 23.7567L61.464 23.7973L61.4638 23.8681V29.4524L63.9298 28.8755V22.4253C63.9298 21.8165 63.8301 21.3401 63.6322 20.9929C63.4355 20.6479 63.1489 20.4209 62.7785 20.3176C62.4049 20.2133 61.9566 20.2111 61.4329 20.3335C60.4727 20.5579 59.6451 21.2216 59.1547 22.1058L59.1182 22.1138L59.1183 21.1298L56.7721 21.6783L56.7493 28.1547C57.0349 28.0284 57.3666 27.9641 57.6982 27.9641C58.2072 27.9641 58.8184 28.1925 59.2547 28.5531ZM64.5859 19.826L65.8204 19.5682L65.8049 17.5621L68.3134 16.9686L68.3079 18.964L70.0699 18.5597V20.3925L68.3079 20.8074L68.3133 25.5448C68.314 26.26 68.3995 27.0473 68.754 27.6895C68.7645 27.7086 68.7764 27.725 68.7887 27.7392L66.1413 28.3584C66.095 28.2637 66.0576 28.1563 66.0325 28.035C65.7501 26.6706 65.7747 24.876 65.7974 23.2192C65.8063 22.5739 65.8149 21.9495 65.8049 21.3796L64.5859 21.6807V19.826ZM77.6581 21.7207L77.6599 21.5882C77.6824 19.9998 77.7148 17.708 75.7158 17.3349C75.2526 17.2486 74.7119 17.2366 74.003 17.4043C73.3461 17.5596 72.7948 17.7748 72.3462 18.0455C71.8965 18.3171 71.6215 18.642 71.3463 19.001C71.0711 19.3599 70.8602 19.7518 70.7183 20.1753C70.5765 20.598 70.467 21.0307 70.4208 21.4939C70.4149 21.5538 70.4087 21.6138 70.4026 21.6739C70.3612 22.0782 70.3192 22.4887 70.3272 22.9061L70.3272 22.9098C70.3356 23.3564 70.3439 23.8023 70.3862 24.2427C70.453 24.939 70.7666 25.9717 71.3204 26.4327C71.6303 26.6909 71.9387 26.8566 72.322 26.9326C72.7839 27.024 73.3716 26.9699 74.0746 26.8037C74.8408 26.6225 75.5485 26.3548 76.0443 25.9869C76.5411 25.6183 76.9463 25.1657 77.1912 24.6253C77.4362 24.085 77.5021 23.4123 77.5156 22.713L75.251 23.244C75.3465 23.7392 75.0769 24.8499 74.0498 24.9679C72.8245 25.1087 72.7911 23.7957 72.8374 22.8172L77.6581 21.7207ZM72.9064 20.5598L72.8928 20.6368C72.8473 20.8916 72.8357 20.9569 72.8427 21.3298L75.2854 20.7599C75.2906 20.5519 75.2876 20.354 75.278 20.1714C75.2598 19.8235 75.194 19.348 74.8603 19.1371C74.677 19.0213 74.4295 18.9879 74.0958 19.0684C73.8531 19.1268 73.6504 19.2292 73.4898 19.3724C73.3293 19.5157 73.203 19.6831 73.1104 19.878C73.0174 20.0735 72.9547 20.2809 72.9173 20.4976L72.9064 20.5598ZM81.0539 24.9391L78.5872 25.5109V16.5746L80.9249 16.0169L80.9141 17.1912L80.9498 17.1829C81.1614 16.711 81.4233 16.3373 81.7135 16.033C82.2372 15.4844 82.8752 15.2 83.6023 15.2354L83.6129 17.4935L83.6131 17.5253L83.5942 17.5286C83.5867 17.5299 83.5792 17.531 83.5716 17.5316C83.5166 17.5361 83.4638 17.5399 83.4126 17.5437C83.1383 17.5635 82.9097 17.5801 82.6257 17.6797C82.3319 17.7827 82.0126 17.9405 81.8563 18.0663C81.2463 18.5582 81.0832 19.2872 81.0539 20.1235V24.9391ZM86.4848 17.5086V17.2635C86.4848 17.032 86.5192 16.7919 86.6064 16.6029C86.6935 16.4139 86.8201 16.2523 86.9914 16.1229C87.1628 15.9935 87.3405 15.8831 87.5966 15.8515C88.0647 15.7938 88.3806 15.7873 88.5423 16.3262C88.5674 16.4099 88.5674 16.5063 88.5674 16.6092V16.6168C88.5674 16.8117 88.5373 16.984 88.4741 17.1294C88.4109 17.2748 88.3049 17.4063 88.1612 17.5228C88.1456 17.5354 88.1302 17.548 88.115 17.5605C87.9894 17.6634 87.8724 17.7593 87.6506 17.8551L86.2264 18.4699C85.7957 18.6558 85.4292 18.8708 85.1192 19.0845C84.8094 19.2981 84.5536 19.5334 84.3551 19.7898C84.1567 20.0462 83.9965 20.3464 83.902 20.67C83.8072 20.9948 83.7878 21.4226 83.7878 21.8413C83.7878 22.1444 83.8653 22.4311 83.9491 22.7111C84.0336 22.9936 84.1984 23.201 84.3818 23.4105C84.5653 23.62 84.8119 23.8099 85.1122 23.8969C85.4133 23.9841 85.8314 24.0402 86.2645 23.9525C86.6586 23.8726 87.0075 23.7691 87.3054 23.641C87.6061 23.5116 87.8741 23.3374 88.1057 23.1209C88.3373 22.9044 88.5669 22.5965 88.7565 22.251L88.7898 22.2461C88.7982 22.2827 88.8057 22.3171 88.8131 22.3506C88.8348 22.4494 88.8547 22.54 88.8884 22.6543C88.9336 22.8073 88.9967 22.9456 89.075 23.0725L91.349 22.5416C91.3288 22.5053 91.3088 22.4713 91.2894 22.4385C91.2285 22.3351 91.1745 22.2434 91.1403 22.1293C91.0951 21.9789 91.0663 21.806 91.0501 21.6164C91.0454 21.563 91.0391 21.5047 91.0323 21.4424C91.0147 21.2813 90.9943 21.0941 90.9934 20.8974L90.9717 16.2439C90.9699 15.8433 90.8796 15.4779 90.785 15.1673C90.6904 14.8565 90.4956 14.6062 90.2459 14.416C89.9963 14.226 89.7684 14.1161 89.3051 14.081C88.8418 14.0457 88.2566 14.0792 87.5224 14.2294C87.0503 14.3261 86.5922 14.4934 86.1825 14.6738C85.7711 14.8551 85.431 15.1267 85.1181 15.4043C84.8054 15.6817 84.5821 16.1104 84.4059 16.4978C84.2303 16.8835 84.1816 17.3437 84.1816 17.8511V18.0631L86.4848 17.5086ZM88.5132 20.3994C88.5089 20.645 88.4081 20.8757 88.3145 21.0685C88.2659 21.1684 88.2106 21.261 88.1463 21.3453C87.7947 21.8064 87.0058 22.1898 86.4857 21.7943C86.4048 21.7327 86.3437 21.648 86.3004 21.5392C86.1416 21.1392 86.2215 20.5739 86.4657 20.2324C86.5009 20.1831 86.5361 20.1338 86.5713 20.0846C86.8578 19.7895 87.2213 19.5709 87.638 19.4052C87.6498 19.4006 87.7547 19.3479 87.8879 19.2679C88.1536 19.1087 88.5356 18.8645 88.5403 18.8419L88.5132 20.3994ZM99.0204 13.1857C99.261 13.6599 99.3012 14.2762 99.3074 14.9838L96.9277 15.5293C96.9278 15.5093 96.9271 15.4892 96.9265 15.4692C96.9253 15.432 96.9241 15.3948 96.9278 15.3582C96.9391 15.248 96.9281 15.0268 96.8991 14.8025C96.8227 14.2147 96.6468 13.7991 95.9498 13.9287C95.449 14.0218 95.0024 14.4715 94.8313 14.9385C94.7309 15.2124 94.6518 15.5471 94.6184 15.9408C94.5853 16.3318 94.5739 16.7853 94.5784 17.3009C94.585 18.0368 94.5962 18.3064 94.6707 18.7516C94.7451 19.1968 94.8293 19.5161 95.0294 19.6899C95.2278 19.8627 95.512 19.9042 95.8888 19.8219C96.0544 19.7858 96.2081 19.7357 96.3338 19.6475C96.908 19.2447 96.9176 18.6637 96.9278 18.0497C96.9297 17.935 96.9316 17.8192 96.9372 17.7031L99.2954 17.1631C99.298 18.5734 99.1327 19.8382 97.8899 20.8124C97.3521 21.2341 96.7045 21.5369 95.8143 21.7346C95.1809 21.8753 94.6265 21.9212 94.154 21.8665C93.6784 21.8114 93.3527 21.6174 93.0366 21.3258C92.7192 21.0331 92.4893 20.6078 92.3278 20.0341C92.1663 19.4605 92.0515 18.7447 92.045 17.8483C92.0384 16.9319 92.0767 16.1473 92.2672 15.494C92.4575 14.8406 92.6929 14.2884 93.0453 13.8562C93.3995 13.4223 93.8419 13.0619 94.327 12.8058C94.8121 12.5496 95.3666 12.3858 95.9507 12.2619C96.7281 12.0968 97.3849 12.0851 97.9149 12.2461C98.4641 12.413 98.7881 12.7278 99.0204 13.1857ZM64.9563 48.0636H60.1854C60.1383 48.0673 60.0864 48.0689 60.0297 48.0695C59.5316 48.0743 58.8461 47.8197 58.238 47.5174C56.3531 46.5807 56.0267 44.6245 56.0267 42.7929V30.3543C56.0267 29.465 56.759 28.7374 57.6541 28.7374C58.5493 28.7374 59.2613 29.4652 59.2816 30.3543C59.3023 31.26 59.2791 32.3814 59.2555 33.5223C59.2212 35.1787 59.1861 36.8763 59.2832 38.0153C59.3065 38.2882 59.4963 38.3887 59.6529 38.3826C59.7988 38.3769 59.9399 38.288 59.9632 38.0649C60.0315 37.4115 60.0038 36.1134 59.9757 34.7991C59.9511 33.6469 59.9262 32.4823 59.9655 31.7289C61.2416 32.5956 62.5122 33.4357 63.7987 34.2833C64.6144 34.8207 65.0056 35.2434 65.0056 36.7352L64.9563 48.0636ZM51.7962 32.6846C51.8496 32.5603 51.9267 32.4614 52.0482 32.4314L55.3553 31.6629L55.3552 34.212L53.5492 34.6289C53.0009 34.7563 52.5526 34.6498 52.2338 34.3956C51.747 34.0073 51.5484 33.2592 51.7962 32.6846ZM52.0482 35.7283C51.9267 35.7583 51.8497 35.8572 51.7962 35.9814C51.5485 36.556 51.747 37.3041 52.2338 37.6924C52.5527 37.9467 53.0009 38.0531 53.5492 37.9257L55.3553 37.5089L55.3553 34.9598L52.0482 35.7283ZM51.7962 39.2574C51.8497 39.1333 51.9267 39.0343 52.0482 39.0043L55.3553 38.2358L55.3553 40.785L53.5492 41.2018C53.0009 41.3292 52.5527 41.2227 52.2338 40.9684C51.747 40.5802 51.5485 39.832 51.7962 39.2574ZM97.7782 8.07091C96.9303 8.07091 96.243 8.75614 96.243 9.60143C96.243 10.4467 96.9303 11.1319 97.7782 11.1319C98.626 11.1319 99.3133 10.4467 99.3133 9.60143C99.3133 8.75614 98.626 8.07091 97.7782 8.07091ZM96.43 9.60137C96.43 8.85909 97.0337 8.25741 97.7782 8.25741C98.5228 8.25741 99.1263 8.85909 99.1263 9.60137C99.1263 10.3437 98.5228 10.9454 97.7782 10.9454C97.0337 10.9454 96.43 10.3437 96.43 9.60137ZM97.5683 10.5647H97.2114V8.71776H97.8707C97.9686 8.71776 98.0525 8.73541 98.1227 8.77075C98.1929 8.80656 98.247 8.85961 98.2847 8.92985C98.3223 9.00056 98.3412 9.08852 98.3417 9.19373C98.3417 9.27606 98.3313 9.3485 98.3098 9.41101C98.2884 9.47394 98.2562 9.52564 98.2124 9.56622C98.169 9.60629 98.1136 9.63389 98.0467 9.64896V9.65414C98.107 9.66233 98.1558 9.67784 98.1929 9.70156C98.2302 9.72488 98.2586 9.75848 98.2785 9.80204C98.2983 9.84599 98.3119 9.90164 98.3194 9.96976C98.3268 10.0379 98.3309 10.1207 98.3318 10.2181C98.3322 10.2827 98.3347 10.3371 98.3383 10.3819C98.3425 10.4267 98.3504 10.463 98.3615 10.4901C98.3726 10.5177 98.3892 10.5371 98.411 10.5492V10.5647H98.0244C98.0074 10.5384 97.9959 10.5087 97.9901 10.4755C97.9839 10.4422 97.9805 10.4073 97.9798 10.3707L97.9699 10.0163C97.9678 9.943 97.95 9.88612 97.9166 9.84555C97.8831 9.80464 97.8306 9.78395 97.7592 9.78349H97.5683V10.5647ZM97.5683 8.99195H97.7369C97.8178 8.99195 97.879 9.01305 97.9211 9.05575C97.9632 9.0984 97.9847 9.16265 97.9847 9.24802C97.9847 9.31399 97.974 9.36745 97.9533 9.40841C97.9327 9.44892 97.9021 9.47866 97.8625 9.49721C97.8228 9.51576 97.7741 9.52526 97.7171 9.52481H97.5683V8.99195Z" fill="#516389"/>
</g>
<defs>
<clipPath id="clip0_3055_7721">
<rect width="51" height="50" fill="white" transform="translate(50)"/>
</clipPath>
</defs>
</svg>
