<svg width="151" height="50" viewBox="0 0 151 50" fill="none" xmlns="http://www.w3.org/2000/svg">
<g clip-path="url(#clip0_3055_7652)">
<path d="M57.2026 47.1402V44.1781C57.2026 43.0426 56.5027 42.3021 55.3028 42.3021C54.703 42.3021 54.053 42.4996 53.603 43.1414C53.2531 42.5983 52.7531 42.3021 52.0032 42.3021C51.5033 42.3021 51.0033 42.4503 50.6034 42.9932V42.4009H49.5535V47.1402H50.6034V44.5237C50.6034 43.6845 51.0533 43.2894 51.7532 43.2894C52.4532 43.2894 52.8031 43.7337 52.8031 44.5237V47.1402H53.853V44.5237C53.853 43.6845 54.3529 43.2894 55.0029 43.2894C55.7028 43.2894 56.0527 43.7337 56.0527 44.5237V47.1402H57.2026ZM72.7508 42.4009H71.051V40.9692H70.0011V42.4009H69.0513V43.3388H70.0011V45.511C70.0011 46.5971 70.451 47.2388 71.6509 47.2388C72.1009 47.2388 72.6008 47.0908 72.9507 46.8933L72.6508 46.0047C72.3508 46.2022 72.0009 46.2516 71.751 46.2516C71.251 46.2516 71.051 45.9554 71.051 45.4617V43.3388H72.7508V42.4009ZM81.6498 42.3021C81.0498 42.3021 80.6499 42.5983 80.3999 42.9932V42.4009H79.35V47.1402H80.3999V44.4743C80.3999 43.6845 80.7499 43.2401 81.3998 43.2401C81.5997 43.2401 81.8497 43.2894 82.0497 43.3388L82.3496 42.3515C82.1497 42.3021 81.8497 42.3021 81.6498 42.3021ZM68.2013 42.7958C67.7014 42.4502 67.0014 42.3021 66.2515 42.3021C65.0517 42.3021 64.2518 42.8945 64.2518 43.8325C64.2518 44.6224 64.8518 45.0668 65.9016 45.2148L66.4015 45.2642C66.9515 45.3629 67.2514 45.511 67.2514 45.7579C67.2514 46.1034 66.8515 46.3503 66.1516 46.3503C65.4516 46.3503 64.9017 46.1034 64.5517 45.8566L64.0518 46.6465C64.6018 47.0414 65.3517 47.2388 66.1016 47.2388C67.5014 47.2388 68.3014 46.5971 68.3014 45.7085C68.3014 44.8693 67.6514 44.4249 66.6515 44.2768L66.1516 44.2274C65.7016 44.1781 65.3517 44.0794 65.3517 43.7831C65.3517 43.4376 65.7016 43.2401 66.2515 43.2401C66.8515 43.2401 67.4514 43.4869 67.7513 43.6351L68.2013 42.7958ZM96.0981 42.3021C95.4982 42.3021 95.0982 42.5983 94.8482 42.9932V42.4009H93.7984V47.1402H94.8482V44.4743C94.8482 43.6845 95.1982 43.2401 95.8481 43.2401C96.0481 43.2401 96.2981 43.2894 96.4981 43.3388L96.798 42.3515C96.598 42.3021 96.2981 42.3021 96.0981 42.3021ZM82.6997 44.7705C82.6997 46.2022 83.6995 47.2388 85.2493 47.2388C85.9493 47.2388 86.4492 47.0908 86.9491 46.6959L86.4492 45.8566C86.0492 46.1528 85.6493 46.3009 85.1993 46.3009C84.3495 46.3009 83.7495 45.7085 83.7495 44.7705C83.7495 43.8819 84.3495 43.2895 85.1993 43.2401C85.6493 43.2401 86.0492 43.3882 86.4492 43.6845L86.9491 42.8452C86.4492 42.4502 85.9493 42.3021 85.2493 42.3021C83.6995 42.3021 82.6997 43.3388 82.6997 44.7705ZM92.3985 44.7705V42.4009H91.3487V42.9932C90.9986 42.5489 90.4987 42.3021 89.8488 42.3021C88.4989 42.3021 87.4491 43.3388 87.4491 44.7705C87.4491 46.2022 88.4989 47.2388 89.8488 47.2388C90.5488 47.2388 91.0487 46.992 91.3487 46.5477V47.1402H92.3985V44.7705ZM88.549 44.7705C88.549 43.9313 89.0989 43.2401 89.9987 43.2401C90.8487 43.2401 91.4486 43.8819 91.4486 44.7705C91.4486 45.6097 90.8487 46.3009 89.9987 46.3009C89.0989 46.2516 88.549 45.6097 88.549 44.7705ZM76.0004 42.3021C74.6006 42.3021 73.6007 43.2894 73.6007 44.7705C73.6007 46.2516 74.6006 47.2388 76.0504 47.2388C76.7504 47.2388 77.4503 47.0414 78.0002 46.5971L77.5003 45.8566C77.1003 46.1528 76.6003 46.3503 76.1004 46.3503C75.4505 46.3503 74.8006 46.054 74.6505 45.2148H78.2002C78.2002 45.0668 78.2002 44.968 78.2002 44.8199C78.2502 43.2894 77.3502 42.3021 76.0004 42.3021ZM76.0004 43.1908C76.6503 43.1908 77.1003 43.5857 77.2003 44.3262H74.7006C74.8006 43.6845 75.2505 43.1908 76.0004 43.1908ZM102.047 44.7705V40.5249H100.997V42.9932C100.648 42.5489 100.148 42.3021 99.4977 42.3021C98.1478 42.3021 97.098 43.3388 97.098 44.7705C97.098 46.2022 98.1478 47.2388 99.4977 47.2388C100.198 47.2388 100.698 46.992 100.997 46.5477V47.1402H102.047V44.7705ZM98.1979 44.7705C98.1979 43.9313 98.7478 43.2401 99.6477 43.2401C100.498 43.2401 101.098 43.8819 101.098 44.7705C101.098 45.6097 100.498 46.3009 99.6477 46.3009C98.7478 46.2516 98.1979 45.6097 98.1979 44.7705ZM63.102 44.7705V42.4009H62.052V42.9932C61.7021 42.5489 61.2022 42.3021 60.5522 42.3021C59.2024 42.3021 58.1524 43.3388 58.1524 44.7705C58.1524 46.2022 59.2024 47.2388 60.5522 47.2388C61.2521 47.2388 61.7521 46.992 62.052 46.5477V47.1402H63.102V44.7705ZM59.2024 44.7705C59.2024 43.9313 59.7523 43.2401 60.6522 43.2401C61.5021 43.2401 62.102 43.8819 62.102 44.7705C62.102 45.6097 61.5021 46.3009 60.6522 46.3009C59.7523 46.2516 59.2024 45.6097 59.2024 44.7705Z" fill="#516389"/>
<path d="M83.5985 6.41211H67.8503V34.3543H83.5985V6.41211Z" fill="#576B95"/>
<path d="M68.8504 20.3827C68.8504 14.7055 71.5501 9.66994 75.6996 6.41167C72.6499 4.04202 68.8004 2.61035 64.6009 2.61035C54.6521 2.61035 46.603 10.5586 46.603 20.3827C46.603 30.207 54.6521 38.1552 64.6009 38.1552C68.8004 38.1552 72.6499 36.7235 75.6996 34.3538C71.5501 31.145 68.8504 26.06 68.8504 20.3827Z" fill="#323F5B"/>
<path d="M104.844 20.3827C104.844 30.207 96.7954 38.1552 86.8466 38.1552C82.6471 38.1552 78.7975 36.7235 75.7479 34.3538C79.9474 31.0956 82.5971 26.06 82.5971 20.3827C82.5971 14.7055 79.8974 9.66994 75.7479 6.41167C78.7975 4.04202 82.6471 2.61035 86.8466 2.61035C96.7954 2.61035 104.844 10.6079 104.844 20.3827Z" fill="#516389"/>
</g>
<defs>
<clipPath id="clip0_3055_7652">
<rect width="59" height="45" fill="white" transform="translate(46 2.5)"/>
</clipPath>
</defs>
</svg>
