<svg width="151" height="75" viewBox="0 0 151 75" fill="none" xmlns="http://www.w3.org/2000/svg">
<g clip-path="url(#clip0_3055_7733)">
<path d="M47.0903 32.999C47.1506 33.0801 47.2052 33.1653 47.2539 33.2539C47.1218 32.6944 46.9197 32.1541 46.6523 31.6463C44.4483 27.5627 38.3158 28.7838 32.1999 33.4136C30.589 34.6305 29.1416 36.0541 27.8944 37.6484C28.635 38.0989 29.342 38.6034 30.0097 39.158C30.4166 39.4576 30.8479 39.7218 31.2989 39.9479C31.687 39.4941 32.0918 39.0479 32.5132 38.6091C37.9609 32.9402 44.8946 30.047 47.0903 32.999Z" fill="url(#paint0_linear_3055_7733)"/>
<path d="M47.475 36.4641L47.5887 36.4305C47.7855 35.1533 47.7051 34.047 47.2532 33.2544C47.4946 34.3057 47.5695 35.3891 47.475 36.4641Z" fill="url(#paint1_linear_3055_7733)"/>
<g style="mix-blend-mode:soft-light">
<g style="mix-blend-mode:soft-light">
<path d="M47.2398 33.2341C47.1912 33.1454 47.1365 33.0602 47.0763 32.9792L47.0513 32.9512C47.1012 33.1052 47.1456 33.2621 47.1844 33.4245C47.2519 33.5392 47.3103 33.659 47.3591 33.783C47.3258 33.5954 47.2842 33.4133 47.2398 33.2341Z" fill="#E7E6E6" fill-opacity="0.5"/>
</g>
<g style="mix-blend-mode:soft-light">
<path d="M32.1389 33.6627C38.2382 28.9994 44.3596 27.7418 46.583 31.8142C46.7767 32.1715 46.9364 32.5467 47.0598 32.9345C47.0667 32.9451 47.0751 32.9546 47.0848 32.9625C47.1441 33.0443 47.1987 33.1294 47.2484 33.2174C47.1133 32.6589 46.9093 32.1197 46.6412 31.6126C44.4233 27.5402 38.2908 28.7977 32.1944 33.4611C29.9581 35.1579 28.0542 37.2608 26.5803 39.6621C26.5932 39.6763 26.6052 39.6913 26.6164 39.7069C28.0782 37.3697 29.9497 35.3215 32.1389 33.6627Z" fill="#E7E6E6" fill-opacity="0.5"/>
</g>
</g>
<path d="M30.3976 37.7015C29.8432 37.2198 29.261 36.7661 28.7342 36.2451C27.673 37.5121 26.5011 38.6801 25.2327 39.7349C19.7767 44.2891 13.8965 45.7987 12.1027 43.0959C12.075 43.0539 12.0501 43.0091 12.0251 42.9671C11.6813 42.4531 11.4237 41.8853 11.2627 41.2866C10.9637 40.1497 10.9829 38.9513 11.3182 37.8248C10.4865 39.5277 10.2536 41.211 10.7831 42.6506C12.1693 46.4541 18.3628 47.0955 24.6006 44.0818C27.5061 42.6814 29.9069 40.7208 31.5066 38.6566C31.1351 38.3373 30.7719 38.0068 30.3976 37.7015Z" fill="url(#paint2_linear_3055_7733)"/>
<path d="M17.1759 31.999C16.8839 32.0241 16.5956 32.0824 16.3165 32.1727L16.3331 32.2147L16.2832 32.1895C15.08 33.0577 15.0384 33.0633 16.3331 32.2147C15.5733 32.692 14.8612 33.2426 14.2067 33.8588C13.1434 34.9043 12.2415 36.1052 11.5314 37.4214C11.4574 37.5614 11.3853 37.7015 11.3151 37.8415C10.9798 38.968 10.9606 40.1664 11.2597 41.3033C11.4206 41.902 11.6782 42.4698 12.0221 42.9838C11.5506 42.1409 11.2996 41.1904 11.2929 40.2222C11.3151 37.8247 13.3251 34.6542 14.6863 33.4723C15.2748 32.9197 16.0248 32.5747 16.8238 32.4892C16.9127 32.3067 17.0318 32.141 17.1759 31.999Z" fill="url(#paint3_linear_3055_7733)"/>
<path style="mix-blend-mode:multiply" opacity="0.71" d="M22.3791 41.8388C24.9352 40.2367 27.2363 38.0269 27.9543 37.0774L28.3674 36.6181C28.6918 36.31 29.0938 35.6854 29.4126 35.3857C30.2277 34.9572 31.7414 33.8873 33.3272 32.823C34.0092 32.3664 34.6967 31.9155 35.0849 31.7026L36.9479 34.8171C35.7863 35.579 32.8115 38.1137 31.7608 39.0184C31.4309 39.2984 31.8246 38.6767 31.5141 38.9735L29.2962 40.9873C27.7658 42.2956 26.0665 43.3877 24.2449 44.2335L22.3791 41.8388Z" fill="url(#paint4_linear_3055_7733)"/>
<path d="M46.2368 31.0275C50.7752 39.7101 40.4454 43.7768 35.0254 37.7887C32.752 34.9011 32.4886 33.4446 31.0636 31.9658C24.9644 25.9861 16.1954 29.7027 11.6321 37.1977C12.2392 36.4639 16.0956 32.019 21.7041 32.7164C26.0401 33.2766 26.7471 38.8782 33.1596 42.1804C40.437 45.9447 53.5199 40.8612 46.2368 31.0275Z" fill="url(#paint5_linear_3055_7733)"/>
<g style="mix-blend-mode:darken" opacity="0.57">
<path d="M33.3527 41.9674C26.9402 38.6569 26.2304 33.0496 21.8972 32.5035C16.5465 31.8201 12.79 35.842 11.9305 36.8615C13.0672 35.5956 16.6824 32.1002 21.7032 32.7359C26.0392 33.2821 26.7461 38.8977 33.1586 42.1971C37.6665 44.5218 44.395 43.4575 47.1397 39.9732C44.2841 43.2726 37.7552 44.2389 33.3527 41.9674Z" fill="#AAADB1"/>
</g>
<g style="mix-blend-mode:soft-light">
<path d="M46.4577 31.3104C46.3857 31.2068 46.3136 31.1031 46.236 30.9995C50.6718 39.4972 40.8631 43.5808 35.3655 38.1164C40.791 43.746 50.7133 39.7577 46.4577 31.3104Z" fill="#516389"/>
</g>
<path d="M69.5103 29.6272C69.4341 29.5957 69.3552 29.5714 69.2747 29.5544C68.637 29.3892 67.0568 29.3359 66.5466 29.7561L66.5189 29.7813C66.4346 29.8609 66.366 29.956 66.3165 30.0613C64.8349 32.0481 63.465 34.1174 62.2134 36.2596L58.3959 30.0726L58.382 30.0417C58.3314 29.9356 58.2607 29.8405 58.1741 29.7617L58.1464 29.7393C57.7028 29.3667 56.3748 29.378 55.6512 29.504C55.4795 29.5222 55.3109 29.5627 55.1494 29.6244C55.0093 29.6849 54.8894 29.785 54.8043 29.9127C54.7192 30.0405 54.6725 30.1903 54.6698 30.3442V43.3988C54.6698 43.6593 54.789 44.1158 55.5875 44.2391C55.853 44.2752 56.1208 44.2921 56.3887 44.2895C56.9431 44.2895 58.1103 44.2895 58.1103 43.3988V35.8702C58.3598 36.268 58.8339 37.0466 59.3579 38.0241C60.0861 39.3853 60.575 40.275 60.8245 40.6932L60.9714 40.9733C61.1025 41.1748 61.2699 41.3496 61.4649 41.4887C61.882 41.7387 62.3784 41.8169 62.8511 41.7071C62.968 41.6754 63.0774 41.6201 63.1727 41.5447C63.386 41.4003 63.5735 41.2204 63.7271 41.0125L64.0598 40.4244C64.2206 40.1387 64.5977 39.4319 65.191 38.3041C65.7843 37.1763 66.2361 36.3538 66.5466 35.8366C66.5466 35.8366 66.5466 37.251 66.5466 37.3323V43.4072C66.5466 44.2979 67.7083 44.2979 68.2655 44.2979C68.8228 44.2979 69.9872 44.2979 69.9872 43.4072V30.347C69.9847 30.1934 69.9384 30.0438 69.8538 29.9161C69.7692 29.7884 69.6499 29.6881 69.5103 29.6272Z" fill="#516389"/>
<path d="M73.6871 34.8091C72.5781 34.8091 72.4395 35.0079 72.4395 35.2236V43.5588C72.4395 43.7745 72.5892 43.9733 73.6871 43.9733C74.7849 43.9733 74.9347 43.7745 74.9347 43.5588V35.2236C74.9347 35.0079 74.7822 34.8091 73.6871 34.8091Z" fill="#516389"/>
<path d="M73.6892 44.4495C73.1348 44.4495 71.9676 44.4496 71.9676 43.5589V35.2237C71.9676 34.333 73.1292 34.333 73.6892 34.333C74.2493 34.333 75.4081 34.333 75.4081 35.2237V43.5589C75.4081 44.4496 74.2465 44.4495 73.6892 44.4495ZM72.913 43.4329C73.4263 43.515 73.9493 43.515 74.4627 43.4329V35.3497C73.9493 35.2675 73.4263 35.2675 72.913 35.3497V43.4329Z" fill="#516389"/>
<path d="M86.2589 30.0918H79.0729C78.3189 30.117 77.9363 30.187 77.9363 30.5007V43.5581C77.9363 43.7738 78.086 43.9726 79.1755 43.9726C80.2651 43.9726 80.4148 43.7738 80.4148 43.5581V38.1665H85.552C85.9484 38.1665 86.2035 37.71 86.2035 37.007C86.2035 36.304 85.9484 35.8475 85.552 35.8475H80.4148V32.4081H86.2589C86.6554 32.4081 86.9132 31.9543 86.9132 31.2513C86.9132 30.5483 86.6582 30.0918 86.2589 30.0918Z" fill="#516389"/>
<path d="M79.1752 44.4493C78.6208 44.4493 77.4619 44.4493 77.4619 43.5587V30.5013C77.4619 29.661 78.4239 29.6358 79.0588 29.6162H86.267C86.7854 29.6162 87.3926 30.0447 87.3926 31.2519C87.3926 32.459 86.7854 32.8876 86.267 32.8876H80.8858V35.3719H85.5517C86.0701 35.3719 86.6773 35.8004 86.6773 37.0076C86.6773 38.2147 86.0701 38.6432 85.5517 38.6432H80.8858V43.5587C80.8858 44.4493 79.7297 44.4493 79.1752 44.4493ZM78.4073 43.4326C78.916 43.5148 79.4345 43.5148 79.9432 43.4326V37.7022H85.5517C85.6016 37.6854 85.7319 37.4837 85.7319 37.0216C85.7319 36.5594 85.6016 36.3578 85.5545 36.3382H79.9432V31.9325H86.2587C86.2892 31.9325 86.4389 31.7504 86.4389 31.2519C86.4389 30.7533 86.2892 30.5797 86.2642 30.5685V30.0924V30.5685H79.0754C78.8514 30.5702 78.6279 30.5908 78.4073 30.6301V43.4326Z" fill="#516389"/>
<path d="M105.046 30.0918C103.954 30.0918 103.807 30.3075 103.807 30.5175V39.13L97.921 30.3355L97.8933 30.3019C97.616 30.0218 96.0829 30.0694 95.7308 30.2178C95.6655 30.2363 95.6077 30.2753 95.5658 30.3292C95.5239 30.3831 95.5001 30.449 95.4979 30.5175V43.5413C95.4979 43.6814 95.4979 43.967 96.74 43.967C97.982 43.967 97.9792 43.687 97.9792 43.5413V34.9288L103.865 43.7122C104.004 43.9054 104.514 43.9726 105.01 43.9726C105.337 43.9801 105.664 43.9472 105.983 43.8746C106.233 43.7934 106.285 43.6477 106.285 43.5413V30.5175C106.285 30.3075 106.138 30.0918 105.046 30.0918Z" fill="#516389"/>
<path d="M105.01 44.4493C103.932 44.4493 103.624 44.1861 103.482 43.99L98.4561 36.4866V43.5419C98.4561 44.4465 97.3 44.4465 96.7456 44.4465C96.1911 44.4465 95.0322 44.4465 95.0322 43.5419V30.5181C95.0345 30.3552 95.0859 30.1969 95.1795 30.0643C95.2731 29.9317 95.4045 29.8311 95.5562 29.7759C95.9111 29.6274 97.7187 29.4454 98.2343 29.9635L98.3203 30.0699L103.338 37.5705V30.5181C103.338 29.6162 104.539 29.6162 105.052 29.6162C105.564 29.6162 106.762 29.6162 106.762 30.5181V43.5419C106.756 43.7243 106.691 43.8998 106.578 44.0418C106.464 44.1838 106.308 44.2846 106.133 44.3289C105.765 44.417 105.388 44.4575 105.01 44.4493ZM104.228 43.4018C104.482 43.4769 104.746 43.5081 105.01 43.4942C105.28 43.4986 105.549 43.4761 105.814 43.427V30.6357C105.306 30.5461 104.786 30.5461 104.278 30.6357V40.6878L97.5662 30.6553C97.0392 30.5581 96.4991 30.5581 95.9721 30.6553V43.4382C96.4792 43.5281 96.998 43.5281 97.5052 43.4382V33.3749L104.228 43.4018Z" fill="#516389"/>
<path d="M110.811 30.0894C109.716 30.0894 109.563 30.2882 109.563 30.5011V43.5585C109.563 43.7741 109.716 43.973 110.811 43.973C111.906 43.973 112.058 43.7741 112.058 43.5585V30.5011C112.058 30.2882 111.909 30.0894 110.811 30.0894Z" fill="#516389"/>
<path d="M110.81 44.4486C110.256 44.4486 109.091 44.4486 109.091 43.5579V30.5005C109.091 29.6099 110.253 29.6099 110.81 29.6099C111.367 29.6099 112.532 29.6099 112.532 30.5005V43.5579C112.532 44.4486 111.37 44.4486 110.81 44.4486ZM110.037 43.4319C110.55 43.5141 111.073 43.5141 111.586 43.4319V30.6266C111.331 30.5769 111.07 30.5562 110.81 30.5649C110.551 30.5559 110.291 30.5766 110.037 30.6266V43.4319Z" fill="#516389"/>
<path d="M90.9205 30.0889C89.8254 30.0889 89.6729 30.2877 89.6729 30.5006V43.558C89.6729 43.7736 89.8254 43.9725 90.9205 43.9725C92.0156 43.9725 92.168 43.7736 92.168 43.558V30.5006C92.168 30.2877 92.0183 30.0889 90.9205 30.0889Z" fill="#516389"/>
<path d="M90.9224 44.4486C90.3679 44.4486 89.2035 44.4486 89.2035 43.5579V30.5005C89.2035 29.6099 90.3651 29.6099 90.9224 29.6099C91.4796 29.6099 92.6412 29.6099 92.6412 30.5005V43.5579C92.6357 44.4486 91.4796 44.4486 90.9224 44.4486ZM90.1461 43.4319C90.6604 43.514 91.1843 43.514 91.6986 43.4319V30.6266C91.1843 30.5444 90.6604 30.5444 90.1461 30.6266V43.4319Z" fill="#516389"/>
<path d="M125.349 30.0918H115.279C115.066 30.0918 114.869 30.243 114.869 31.3438C114.869 32.4445 115.066 32.5957 115.279 32.5957H119.072V43.5581C119.072 43.7738 119.222 43.9726 120.311 43.9726C121.401 43.9726 121.55 43.7738 121.55 43.5581V32.5957H125.349C125.559 32.5957 125.756 32.4445 125.756 31.3438C125.756 30.243 125.557 30.0918 125.349 30.0918Z" fill="#516389"/>
<path d="M120.312 44.4493C119.757 44.4493 118.601 44.4493 118.601 43.5587V33.0752H115.274C114.39 33.0752 114.39 31.9045 114.39 31.3443C114.39 30.7842 114.39 29.6162 115.274 29.6162H125.349C126.231 29.6162 126.231 30.7842 126.231 31.3443C126.231 31.9045 126.231 33.0752 125.349 33.0752H122.022V43.5587C122.022 44.4493 120.869 44.4493 120.312 44.4493ZM119.544 43.4326C120.052 43.5148 120.571 43.5148 121.08 43.4326V32.1201H125.221C125.303 31.6062 125.303 31.0824 125.221 30.5685H115.402C115.32 31.0824 115.32 31.6062 115.402 32.1201H119.544V43.4326Z" fill="#516389"/>
<path d="M139.731 30.2206C139.268 30.0581 137.53 30.0161 137.2 30.4306L134.064 35.3628L130.921 30.4362C130.618 30.0273 128.886 30.0581 128.425 30.2178C128.165 30.3046 128.109 30.453 128.109 30.5651V30.6351L132.822 38.06V43.5104C132.822 43.6281 132.822 43.9838 134.07 43.9838C135.318 43.9838 135.318 43.6281 135.318 43.5104V38.06L140.031 30.6351V30.5651C140.042 30.4558 139.978 30.3102 139.731 30.2206Z" fill="#516389"/>
<path d="M134.059 44.4607C133.633 44.4607 132.341 44.4607 132.341 43.5113V38.1897L127.628 30.7648V30.5575C127.631 30.3715 127.696 30.1919 127.811 30.047C127.926 29.902 128.086 29.7998 128.265 29.7565C128.72 29.6024 130.774 29.44 131.295 30.143L131.315 30.171L134.062 34.4758L136.835 30.1262C137.389 29.4344 139.457 29.6108 139.884 29.7649C140.058 29.812 140.212 29.9148 140.323 30.0577C140.434 30.2006 140.496 30.3759 140.5 30.5575V30.7676L135.787 38.1925V43.5141C135.778 44.4607 134.498 44.4607 134.059 44.4607ZM133.283 43.4188C133.793 43.5346 134.323 43.5346 134.833 43.4188V37.918L139.466 30.6359C138.98 30.5351 137.83 30.5631 137.569 30.7311L134.068 36.2459L130.55 30.7395C130.289 30.5715 129.163 30.5407 128.667 30.6443L133.283 37.9264V43.4188Z" fill="#516389"/>
<path d="M74.0911 29.7363H73.1679C72.4222 29.7363 71.8177 30.347 71.8177 31.1003V32.0582C71.8177 32.8115 72.4222 33.4222 73.1679 33.4222H74.0911C74.8368 33.4222 75.4412 32.8115 75.4412 32.0582V31.1003C75.4412 30.347 74.8368 29.7363 74.0911 29.7363Z" fill="#516389"/>
</g>
<defs>
<linearGradient id="paint0_linear_3055_7733" x1="49.0992" y1="40.9919" x2="27.3284" y2="33.9702" gradientUnits="userSpaceOnUse">
<stop offset="0.01" stop-color="#4B5162"/>
<stop offset="1" stop-color="#646B7E"/>
</linearGradient>
<linearGradient id="paint1_linear_3055_7733" x1="26.6106" y1="34.6389" x2="47.6962" y2="34.8574" gradientUnits="userSpaceOnUse">
<stop offset="0.01" stop-color="#FFA220"/>
<stop offset="0.04" stop-color="#FFA61C"/>
<stop offset="0.34" stop-color="#FFC000"/>
<stop offset="0.61" stop-color="#FDC200"/>
<stop offset="0.74" stop-color="#F6C900"/>
<stop offset="0.75" stop-color="#F5CB00"/>
<stop offset="0.78" stop-color="#F3C200"/>
<stop offset="0.84" stop-color="#F0B100"/>
<stop offset="0.89" stop-color="#EFAB00"/>
<stop offset="1" stop-color="#B74600"/>
</linearGradient>
<linearGradient id="paint2_linear_3055_7733" x1="33.5088" y1="46.9244" x2="10.8333" y2="38.1377" gradientUnits="userSpaceOnUse">
<stop offset="0.01" stop-color="#4B5162"/>
<stop offset="1" stop-color="#646B7E"/>
</linearGradient>
<linearGradient id="paint3_linear_3055_7733" x1="17.7599" y1="44.0477" x2="10.2284" y2="43.2932" gradientUnits="userSpaceOnUse">
<stop offset="0.01" stop-color="#3B3B3B"/>
<stop offset="1" stop-color="#797979"/>
</linearGradient>
<linearGradient id="paint4_linear_3055_7733" x1="29.1206" y1="23.7184" x2="15.2936" y2="31.6199" gradientUnits="userSpaceOnUse">
<stop offset="0.11" stop-color="white"/>
<stop offset="0.61" stop-color="#878787"/>
<stop offset="0.95" stop-color="white"/>
</linearGradient>
<linearGradient id="paint5_linear_3055_7733" x1="51.8759" y1="44.8215" x2="14.1511" y2="27.5677" gradientUnits="userSpaceOnUse">
<stop offset="0.01" stop-color="#4B5162"/>
<stop offset="1" stop-color="#646B7E"/>
</linearGradient>
<clipPath id="clip0_3055_7733">
<rect width="130" height="18" fill="white" transform="translate(10.5 28.5)"/>
</clipPath>
</defs>
</svg>
