<svg width="151" height="50" viewBox="0 0 151 50" fill="none" xmlns="http://www.w3.org/2000/svg">
<path d="M25.9426 35.7884V17.6501C25.9426 16.0084 27.2667 14.816 29.0539 14.816C30.8412 14.816 31.8838 15.4928 32.678 16.9885L37.3612 26.0496H37.4274V15.1573H42.6734V33.1184C42.6942 33.4936 42.6388 33.8691 42.5103 34.2234C42.3818 34.5778 42.1827 34.904 41.9245 35.1835C41.6663 35.463 41.354 35.6903 41.0055 35.8524C40.6569 36.0144 40.279 36.1081 39.8932 36.1281C38.5361 36.1281 37.5444 35.5164 36.1525 32.8934L31.2714 23.702H31.2052V35.7724H25.9422L25.9426 35.7884ZM52.206 30.1231L50.2365 27.0653L54.4557 24.3293C53.8692 23.9486 53.1743 23.757 52.4696 23.7819C50.3514 23.7819 49.1931 25.9223 49.1931 27.7581C49.1931 29.6735 50.5849 31.6688 52.6684 31.6688C54.6049 31.6688 56.4913 29.9789 57.269 28.1926L60.9596 30.0758C59.4869 33.5842 56.1933 36.1272 52.3039 36.1272C48.0013 36.1272 44.228 32.4577 44.228 28.0158C44.228 23.5577 47.9848 19.9043 52.3039 19.9043C55.9115 19.9043 58.2781 21.8196 59.9662 24.8449L52.206 30.1231ZM65.9252 28.0149C65.9252 26.2286 67.2492 24.7316 69.053 24.7316C70.8568 24.7316 72.1808 26.2281 72.1808 28.0149C72.1808 29.8017 70.8568 31.2983 69.053 31.2983C67.2492 31.2983 65.9252 29.8017 65.9252 28.0149ZM60.9605 28.0149C60.9605 32.4729 64.7338 36.1264 69.053 36.1264C73.3721 36.1264 77.1454 32.4581 77.1454 28.0166C77.1454 23.5586 73.3721 19.9051 69.053 19.9051C64.7338 19.9051 60.9605 23.5569 60.9605 28.0166V28.0149ZM78.2046 31.3626H83.0866C83.6825 31.3626 83.9804 31.0728 83.9804 30.6705C83.9804 29.2222 78.3694 29.7691 78.3694 24.7159C78.3694 21.8353 80.9013 20.3865 83.3175 20.3865H88.25V24.4583H84.2779C83.682 24.4583 83.234 24.7641 83.234 25.1825C83.234 26.4058 89.1586 26.7116 89.1586 30.8156C89.1586 33.9217 87.1891 35.6116 83.863 35.6116H78.1867V31.3626H78.2046ZM95.7466 29.19C95.7466 30.5098 96.4251 31.3304 97.5338 31.3304C98.6425 31.3304 99.3211 30.5098 99.3211 29.19V20.4025H104.336V29.19C104.336 33.1662 101.969 36.1425 97.5343 36.1425C93.1155 36.1425 90.7328 33.1815 90.7328 29.19V20.4025H95.7466V29.19ZM110.293 22.9456H110.359C111.12 20.7883 112.577 20.403 114.778 20.403V24.971C111.269 25.0979 110.955 25.8403 110.955 28.4794V35.6252H105.891V20.4025H110.293L110.293 22.9456ZM115.837 35.6277V19.2917C115.837 16.1374 118.352 13.8037 122.324 13.8037H125.239V18.3582H122.788C121.464 18.3582 121.135 19.0824 121.135 20.3539H124.213V24.9084H121.133V35.6268L115.837 35.6277Z" fill="#516389"/>
</svg>
