<svg width="151" height="75" viewBox="0 0 151 75" fill="none" xmlns="http://www.w3.org/2000/svg">
<g clip-path="url(#clip0_3055_7793)">
<path d="M147.569 26.6536C145.649 25.3431 142.768 24.6807 138.987 24.6807H129.078L125.393 44.7571H112.406L113.241 40.2017H121.065L121.994 35.0874H114.175L115.011 30.5513H123.069L124.14 24.6807H107.778L104.278 43.7236H98.2764L101.798 24.6807H93.2449L89.7497 43.7236H83.8971L87.4236 24.6807H78.8776L75.1856 44.7571H62.105L62.9332 40.2017H70.7854L71.7144 35.1164H63.8694L64.6928 30.5634H72.8546L73.9109 24.6807H22.9232L20.0282 40.5799L14.2477 24.6807H5.36563L0.598145 50.6422H9.07208L11.9527 34.2973L17.5628 50.6422H47.9441L51.6362 30.5634H56.3869L52.69 50.6422H132.604L134.921 37.9662L138.67 50.6422H147.149L143.265 40.2836L144.151 40.0981C146.107 39.679 147.634 38.7732 148.698 37.4193C149.761 36.0655 150.299 34.2877 150.299 32.1846C150.306 29.7227 149.413 27.9159 147.569 26.6536ZM40.5673 44.7571H27.6043L28.4421 40.2017H36.58L37.5042 35.0706H29.4335L30.2113 30.5634H43.1743L40.5673 44.7571ZM140.579 36.0029C139.727 36.6003 138.49 36.8918 136.8 36.8918H135.12L136.404 29.925H137.638C139.043 29.925 140.065 30.1514 140.771 30.614C141.323 30.9729 141.971 31.6884 141.971 33.0422C141.99 34.6827 141.222 35.5596 140.579 36.0029Z" fill="#516389"/>
</g>
<defs>
<clipPath id="clip0_3055_7793">
<rect width="150" height="27" fill="white" transform="translate(0.5 24)"/>
</clipPath>
</defs>
</svg>
