<svg width="151" height="75" viewBox="0 0 151 75" fill="none" xmlns="http://www.w3.org/2000/svg">
<g clip-path="url(#clip0_3055_7781)">
<path d="M108.307 31.8381C108.435 30.8738 108.537 30.3749 108.563 29.8428C108.588 26.7169 107.949 23.9233 105.699 22.3936C103.371 20.7972 100.942 21.1963 98.9986 23.3579C95.6742 27.0826 94.2677 32.0044 95.0093 37.6579C95.5974 42.1142 98.9474 44.3422 102.042 42.2804C103.704 41.1829 105.213 39.487 106.542 37.7577C108.742 34.8977 110.762 31.8381 112.833 28.8119C114.24 26.7501 115.928 25.3533 118.05 24.9876C121.119 24.4222 123.88 26.5506 124.596 30.4747C125.491 35.2967 125.031 39.9194 122.73 44.0763C120.428 48.2665 115.518 50.6942 111.452 46.0383C110.839 49.7962 110.225 53.4212 109.611 57.1124C108.051 57.1124 106.542 57.1124 104.931 57.1124C105.341 54.5185 105.724 52.0576 106.133 49.5635C106.184 49.2642 106.312 48.9315 106.466 48.6988C108.358 45.9385 110.276 43.2115 112.22 40.4513C112.347 40.651 112.424 40.7174 112.45 40.8172C113.089 42.6463 114.01 44.0763 115.697 44.0429C117.462 43.9765 118.587 42.5465 119.303 40.5844C120.121 38.2897 120.633 35.8954 120.378 33.3347C120.198 31.4058 119.047 30.3085 117.769 31.2728C116.158 32.5033 114.598 34.0663 113.319 35.8288C111.606 38.1901 110.123 40.8837 108.588 43.4444C105.468 48.599 101.249 49.3972 96.7226 48.0669C92.7078 46.8697 90.1505 42.6463 89.997 36.5937C89.8181 30.0424 91.3268 24.0895 95.4184 19.7663C99.2543 15.7092 105.315 15.0441 109.049 18.2699C109.918 19.0347 110.736 19.9992 111.376 21.0633C113.345 24.256 113.294 25.1538 111.197 28.1801C110.583 29.0779 109.944 30.0092 109.304 30.8738C109.1 31.1397 108.793 31.3726 108.307 31.8381Z" fill="#516389"/>
<path d="M28.0853 47.7666C29.773 37.291 31.4609 26.9485 33.1231 16.606C37.1635 16.606 41.1785 16.2735 45.1422 16.7058C49.3361 17.1381 51.2796 21.6941 50.1032 27.3144C48.9014 33.001 46.1139 35.595 40.7948 35.7946C38.8769 35.861 36.9846 35.7946 34.9899 35.7946C34.6318 37.9228 34.2994 39.885 33.9669 41.8803C33.6345 43.8091 33.3277 45.7712 33.0208 47.7666C31.4352 47.7666 29.8753 47.7666 28.0853 47.7666ZM35.7571 30.8394C38.0842 30.6067 40.1044 30.5401 42.1246 30.141C44.1449 29.7419 45.5513 27.2478 45.449 24.6871C45.3724 23.0909 44.7841 21.9935 43.5566 21.8605C41.4852 21.6276 39.4139 21.5612 37.317 21.4614C36.78 24.6539 36.294 27.5803 35.7571 30.8394Z" fill="#516389"/>
<path d="M52.7377 30.9732C53.4538 28.213 54.7581 26.4505 56.676 25.486C59.1053 24.2556 61.5858 24.2223 64.0664 25.2199C66.3168 26.1178 67.4931 28.5455 67.1607 31.6383C66.8538 34.4651 66.2912 37.2917 65.9588 40.1185C65.6776 42.5462 65.5752 45.0071 65.3707 47.6675C64.271 47.6675 62.8645 47.6675 61.2791 47.6675C61.1512 47.0689 60.9977 46.3373 60.8188 45.4726C60.4607 45.8385 60.1027 46.2042 59.7447 46.5369C58.0825 48.1332 56.2157 48.7317 54.1955 48.0333C52.1241 47.3017 50.8199 44.9073 50.7431 41.9476C50.6408 38.888 51.8427 36.1278 53.9909 35.2964C55.9343 34.5648 57.9802 34.3653 60.0004 33.8998C60.4096 33.7999 60.8443 33.6669 61.2534 33.6669C62.3019 33.6669 62.6344 32.8687 62.7111 31.6715C62.7622 30.4744 62.3787 29.6762 61.5092 29.2106C60.0516 28.4124 58.4149 29.0776 57.4687 30.7737C57.2898 31.073 57.0084 31.3058 56.7272 31.4389C56.5481 31.5385 56.318 31.3723 56.1134 31.339C55.0393 31.2392 53.9397 31.1062 52.7377 30.9732ZM61.7138 37.0923C59.9493 37.6244 58.3126 37.9569 56.7527 38.5887C55.4229 39.1208 54.9627 40.451 55.3206 41.9476C55.6531 43.311 56.7527 44.0094 58.0057 43.6769C60.3073 43.1115 61.3046 41.3823 61.7138 37.0923Z" fill="#516389"/>
<path d="M69.8195 57.0125C71.0727 54.1192 72.2489 51.5252 73.2974 48.8316C73.6299 47.967 73.7577 46.8363 73.6554 45.8718C72.8372 39.254 71.9165 32.6693 71.0214 26.0847C70.9959 25.8186 70.9959 25.5527 70.9703 25.22C72.5047 25.22 73.9879 25.22 75.6245 25.22C76.1871 30.7072 76.7497 36.2277 77.3123 41.7149C79.0513 37.4249 80.9436 33.2679 82.4269 28.8782C83.4497 25.8186 84.8563 24.5217 87.3623 25.1204C87.8226 25.22 88.283 25.1204 88.8711 25.1204C88.7688 25.4861 88.7433 25.8186 88.641 26.0515C84.1657 35.9616 79.665 45.8718 75.1898 55.782C74.8063 56.6467 74.3715 57.0458 73.5787 56.9792C72.3769 56.9459 71.2005 57.0125 69.8195 57.0125Z" fill="#516389"/>
<path d="M26.2186 59.4064C26.5 57.7105 26.7557 56.1475 27.0114 54.5844C41.4343 53.753 55.7548 52.955 70.2289 52.1235C69.5897 53.6866 69.0782 55.0832 68.4388 56.3469C68.2342 56.746 67.6972 57.0453 67.3137 57.0785C59.3095 57.5775 51.3053 58.043 43.3011 58.5086C38.0587 58.8078 32.8419 59.1071 27.5996 59.4064C27.1904 59.4064 26.7557 59.4064 26.2186 59.4064Z" fill="#516389"/>
</g>
<defs>
<clipPath id="clip0_3055_7781">
<rect width="100" height="44" fill="white" transform="translate(25.5 15.5)"/>
</clipPath>
</defs>
</svg>
