<svg width="151" height="75" viewBox="0 0 151 75" fill="none" xmlns="http://www.w3.org/2000/svg">
<path d="M33.9759 36.1478C33.9631 35.7122 33.7456 35.4883 33.3363 35.4758H31.136C30.6115 35.5007 30.3429 35.7869 30.3301 36.3095V40.1545C30.3429 40.6896 30.6371 40.9633 31.2128 40.9882H33.2211C33.4258 40.9882 33.6049 40.9136 33.7456 40.7642C33.8863 40.6522 33.9631 40.5029 33.9631 40.3163L33.9759 36.1478ZM27.5158 35.6003C27.5286 34.6421 27.7461 33.908 28.181 33.4102C28.3985 33.1987 28.6799 33.0245 29.0253 32.8752C29.3835 32.7258 29.7161 32.6512 30.0487 32.6512H34.0782C35.8563 32.6636 36.7646 33.6093 36.7902 35.4883V41.2744C36.7774 41.9464 36.5087 42.5187 35.9843 43.004C35.4726 43.5142 34.8585 43.7755 34.1422 43.788H30.3301V47.9565H27.5158V35.6003ZM41.8942 40.4158C41.8942 40.5776 41.971 40.702 42.1245 40.8016C42.2524 40.9136 42.4315 40.9758 42.6362 40.9758H44.7981C45.2842 40.9758 45.54 40.7891 45.5528 40.4158V39.6319C45.5528 39.1964 45.297 38.9848 44.7725 38.9848H42.6234C42.342 38.9848 42.1501 39.0346 42.035 39.1217C41.9326 39.2213 41.8815 39.4204 41.8815 39.719L41.8942 40.4158ZM45.5656 36.0731C45.5784 35.65 45.3226 35.4509 44.8109 35.4634H39.1311V32.6512H45.5272C47.3949 32.6761 48.3415 33.5596 48.3671 35.2892V41.1873C48.3543 41.9339 48.1113 42.5436 47.6635 43.0414C47.1902 43.5515 46.5762 43.8004 45.8215 43.8004H41.9582C40.0778 43.788 39.1183 42.9543 39.0928 41.2869V39.0097C39.1055 37.2677 40.0138 36.3842 41.8303 36.3593H45.5784L45.5656 36.0731ZM56.2855 45.1443C56.503 45.1318 56.7076 45.0572 56.8611 44.9079C57.0146 44.771 57.0914 44.6217 57.0914 44.4599V43.788H53.484C53.0107 43.788 52.6397 43.7257 52.3583 43.6138C52.0641 43.5142 51.7698 43.3151 51.4628 43.0289C51.1814 42.7303 50.9767 42.4192 50.8488 42.0957C50.7209 41.797 50.6569 41.4237 50.6569 40.9633V32.6512H53.484V40.0799C53.484 40.6771 53.7398 40.9758 54.2387 40.9758H56.2343C56.4774 40.9758 56.682 40.9011 56.8483 40.7518C57.0146 40.6149 57.0914 40.4656 57.0914 40.2789V32.6512H59.8929V44.9328C59.8801 45.8411 59.637 46.5753 59.1765 47.1228C58.7032 47.6703 58.0636 47.9565 57.2449 47.9689H50.6569V45.1443H56.2855ZM62.1059 40.9758H67.1333C67.5938 40.9633 67.8368 40.7767 67.8496 40.4407V40.1918C67.8496 40.1172 67.8241 40.0425 67.7857 39.9554C67.6706 39.7439 67.5298 39.6319 67.3763 39.6319H64.8691C64.1271 39.6195 63.5003 39.3706 62.963 38.8853C62.4257 38.4373 62.1571 37.9023 62.1315 37.2552V35.1523C62.1571 33.5098 63.0781 32.6761 64.8819 32.6512H70.7151V35.4758H65.7773C65.2017 35.4758 64.9074 35.65 64.9074 35.9984V36.2722C64.9074 36.6331 65.2017 36.8073 65.8029 36.8073H68.2846C68.9498 36.8197 69.5126 37.0686 69.9859 37.5539C70.4593 38.0391 70.7023 38.6115 70.7279 39.2835V41.3366C70.7151 41.909 70.4337 42.4939 69.9092 43.0663C69.6533 43.3524 69.3847 43.5391 69.1289 43.6511C68.8602 43.7506 68.4893 43.8004 68.0159 43.8004H62.1187L62.1059 40.9758ZM75.5506 40.4158C75.5506 40.5776 75.6273 40.702 75.7808 40.8016C75.9087 40.9136 76.075 40.9758 76.2925 40.9758H78.4672C78.9533 40.9758 79.2091 40.7891 79.2219 40.4158V39.6319C79.2219 39.1964 78.9661 38.9848 78.4416 38.9848H76.2925C76.0111 38.9848 75.8192 39.0346 75.7041 39.1217C75.6017 39.2213 75.5506 39.4204 75.5506 39.719V40.4158ZM79.2219 36.0731C79.2347 35.65 78.9789 35.4509 78.4544 35.4634H72.7746V32.6512H79.1707C81.0384 32.6761 81.985 33.5596 82.0106 35.2892V41.1873C81.9978 41.9339 81.7548 42.5436 81.307 43.0414C80.8337 43.5515 80.2197 43.8004 79.465 43.8004H75.5889C73.7085 43.788 72.7491 42.9543 72.7235 41.2869V39.0097C72.7363 37.2677 73.6445 36.3842 75.461 36.3593H79.2219V36.0731ZM84.3132 31.046C84.326 30.287 84.6202 29.6772 85.1831 29.2168C85.7332 28.7564 86.4495 28.5076 87.345 28.4951H89.1359V31.2202H88.0485C87.4473 31.2326 87.1531 31.5064 87.1403 32.0539V32.6512H89.1359V35.4758H87.1403V43.8004H84.3132V31.046ZM97.1566 36.0233V35.9611C97.1566 35.8118 97.0926 35.6874 96.9775 35.6003C96.8496 35.5132 96.6833 35.4634 96.4914 35.4634H94.5214C94.2655 35.4634 94.0609 35.538 93.9074 35.6749C93.7155 35.7993 93.6132 35.9736 93.6132 36.1851V37.3174L97.1566 36.0233ZM93.6643 40.0176V40.1918C93.6643 40.4158 93.7283 40.6025 93.8434 40.7269C93.933 40.8887 94.0481 40.9758 94.2144 40.9758H100.009V43.8004H93.8434C93.2806 43.8004 92.8456 43.7506 92.5386 43.6511C92.206 43.5391 91.899 43.3649 91.6304 43.116C91.3233 42.8174 91.1059 42.5187 91.0035 42.1952C90.8884 41.8717 90.8245 41.4362 90.8245 40.9011L90.7989 35.2518C90.8245 33.5471 91.7455 32.6761 93.5492 32.6512H97.3613C99.1138 32.6761 100.009 33.5844 100.035 35.3514V37.5787L93.6643 40.0176ZM106.009 43.8004C105.587 43.8004 105.19 43.7631 104.832 43.6884C104.461 43.6262 104.09 43.4644 103.719 43.1782C103.335 42.8547 103.067 42.4814 102.913 42.0708C102.76 41.6726 102.683 41.2122 102.683 40.7145V35.4509C102.67 35.0279 102.708 34.6421 102.811 34.3186C102.9 33.9951 103.105 33.6715 103.412 33.3605C103.757 33.0369 104.103 32.813 104.474 32.701C104.832 32.6139 105.228 32.5641 105.676 32.5641H110V33.2236H105.779C105.037 33.2236 104.448 33.3729 104.013 33.6715C103.578 33.9951 103.348 34.555 103.348 35.3514V40.6149C103.348 40.9882 103.412 41.3491 103.527 41.6975C103.642 42.0335 103.847 42.3445 104.128 42.6058C104.435 42.8298 104.742 42.9791 105.037 43.0289C105.344 43.0911 105.676 43.1285 106.034 43.1285H110.064V43.788H106.009V43.8004ZM121.129 36.969H115.462C114.784 36.9815 114.247 37.193 113.863 37.5787C113.467 37.9769 113.275 38.5244 113.275 39.2213V40.9011C113.275 41.2246 113.313 41.5233 113.377 41.797C113.454 42.0832 113.62 42.3321 113.902 42.5436C114.388 42.9418 114.938 43.1285 115.526 43.1285H118.98C120.413 43.116 121.142 42.3819 121.142 40.9136L121.129 36.969ZM121.807 40.7642C121.807 41.1873 121.769 41.5606 121.718 41.8841C121.628 42.245 121.436 42.581 121.155 42.9045C120.566 43.5142 119.824 43.8129 118.955 43.788H115.577C114.695 43.788 113.991 43.5391 113.441 43.0289C112.878 42.5312 112.597 41.8344 112.597 40.9384V39.2462C112.622 37.3299 113.607 36.3469 115.539 36.3095H121.155V35.5629C121.155 34.9532 120.976 34.4181 120.605 33.9577C120.374 33.6591 120.106 33.46 119.799 33.3605C119.492 33.2858 119.134 33.236 118.75 33.236H112.622V32.5765H118.43C118.967 32.5765 119.441 32.6139 119.876 32.6885C120.093 32.7258 120.298 32.813 120.49 32.9374C120.694 33.0494 120.873 33.2236 121.04 33.4476C121.564 34.1071 121.82 34.8537 121.807 35.6998V40.7642ZM128.152 33.236C126.579 33.2609 125.798 34.0946 125.837 35.7371V43.788H125.159V35.7496C125.12 33.6342 126.157 32.5765 128.267 32.5765H129.022V33.236H128.152ZM139.576 33.236H134.228C133.845 33.236 133.499 33.2734 133.192 33.3605C132.872 33.4351 132.553 33.6218 132.258 33.9329C131.977 34.219 131.798 34.5052 131.721 34.779C131.619 35.0652 131.58 35.4012 131.593 35.7993V40.9384C131.593 41.797 131.849 42.3694 132.361 42.6805C132.617 42.8298 132.898 42.9294 133.205 43.004C133.512 43.0787 133.87 43.1285 134.241 43.1285H136.582C137.452 43.1285 138.168 42.9294 138.718 42.5436C139.269 42.1703 139.55 41.5357 139.576 40.6274V33.236ZM140.254 40.6771C140.19 42.8049 139.038 43.8502 136.787 43.8004H134.28C133.755 43.8004 133.282 43.7506 132.86 43.676C132.425 43.564 132.015 43.3151 131.619 42.9169C131.325 42.5561 131.133 42.1952 131.056 41.8219C130.954 41.4486 130.902 41.038 130.928 40.59V35.7993C130.954 33.6467 132.079 32.5641 134.28 32.589H139.588V28.9431H140.266V40.6771" fill="#516389"/>
<path d="M11.8463 32.2264C12.0638 32.1269 12.294 32.0522 12.5115 32.0149C12.9208 30.1235 14.6478 28.705 16.7073 28.705C18.7797 28.705 20.4938 30.1235 20.9032 32.0149C21.5428 32.1269 22.0673 32.3758 22.4638 32.7491C22.4766 32.3882 22.4638 32.0398 22.4254 31.7038C22.1696 28.8418 19.7007 26.6021 16.6945 26.6021C13.5988 26.6021 11.0788 28.9912 10.9508 31.9651C10.938 32.2264 10.9252 32.4877 10.938 32.7739C11.1939 32.5624 11.4881 32.3758 11.8463 32.2264Z" fill="#516389"/>
<path d="M20.0589 32.6494H13.1639C12.8313 32.6494 12.4859 32.7241 12.1405 32.8734C11.7951 33.0227 11.5137 33.1969 11.2962 33.4085C10.8741 33.9062 10.6438 34.6403 10.631 35.5985V40.8371C10.6438 41.7953 10.8613 42.5294 11.2962 43.0271C11.5265 43.2387 11.7951 43.4129 12.1405 43.5622C12.4987 43.7115 12.8441 43.7862 13.1639 43.7862H20.0589C21.837 43.7737 22.7453 42.8156 22.7708 40.9367V35.4865C22.7453 33.6076 21.837 32.6619 20.0589 32.6494Z" fill="#516389"/>
</svg>
