<svg width="151" height="75" viewBox="0 0 151 75" fill="none" xmlns="http://www.w3.org/2000/svg">
<g clip-path="url(#clip0_3055_7763)">
<path d="M37.2042 22.7529L25.7222 52.0442H30.027L34.4052 40.6336H36.4687L34.2383 52.0442H38.3524C38.3524 52.0442 39.8839 43.8917 40.3626 40.2323C42.2775 39.5605 43.2331 37.3995 43.2331 37.3995L47.3729 25.8821C47.9195 24.3599 46.7951 22.7529 45.1829 22.7529H37.2042ZM39.2621 37.3995H35.4342L39.8839 26.3552H43.4734L39.2621 37.3995Z" fill="#516389"/>
<path d="M53.6515 26.4325L43.9047 52.0442H48.0187L52.3657 40.7128H56.0579L51.7513 52.0442H55.913L65.5259 26.4601C66.1991 24.6673 64.8785 22.7529 62.9709 22.7529H58.9779C56.6137 22.7529 54.4952 24.2163 53.6515 26.4325ZM53.2773 37.3995L57.4812 26.2098H61.4999L57.1217 37.3995H53.2773Z" fill="#516389"/>
<path d="M73.5945 43.0285C75.9734 43.0303 77.736 41.3056 78.5816 39.0765L83.4587 26.2099C84.1318 24.417 83.1799 22.7549 81.2723 22.7549H73.3542L62.2061 52.0461H66.3201L69.8289 43.0303H73.5211L73.5945 43.0285ZM71.0101 39.6103L75.7826 26.2117H79.2511L74.3043 39.6103H71.0101Z" fill="#516389"/>
<path d="M90.6027 22.7549H94.4784L84.0731 52.0443H79.838L90.6027 22.7549Z" fill="#516389"/>
<path d="M101.369 22.7549L90.6523 52.0461H99.1428C100.999 52.0461 102.659 50.8865 103.305 49.1397L111.769 26.2081C112.387 24.5349 111.153 22.7549 109.376 22.7549H101.369ZM99.7425 48.8267H96.0577L104.192 26.2099H107.877L99.7425 48.8267Z" fill="#516389"/>
<path d="M113.139 52.0462V34.2061L106.321 52.0444L113.139 52.0462Z" fill="#516389"/>
<path d="M124.437 24.1384V22.8389H124.976V26.0086H124.437V24.7256H117.012V24.1384H124.437Z" fill="#516389"/>
<path d="M120.84 27.2093H117.012V26.6221H124.976V27.8038C124.976 28.9947 124.439 29.4973 123.203 29.4973H122.797C121.814 29.4973 121.279 29.1991 121.11 28.6837C120.943 29.2193 120.532 29.4328 119.478 29.4328C118.79 29.4328 117.53 29.4218 117.012 29.5138V28.9377C117.519 28.8401 118.88 28.853 119.423 28.853C120.496 28.853 120.839 28.6929 120.839 27.848V27.2093H120.84ZM121.356 27.2093V27.8977C121.356 28.7315 121.926 28.9009 122.768 28.9009H123.179C123.982 28.9009 124.461 28.6524 124.461 27.7817V27.2093H121.356Z" fill="#516389"/>
<path d="M119.838 31.2102L117.011 30.7574V30.1665L124.975 31.4973V32.3422L117.011 33.7301V33.1153L119.838 32.6367V31.2102ZM120.375 32.5521C122.405 32.206 123.81 31.9888 124.461 31.9225V31.8949C123.875 31.8692 122.022 31.5507 120.375 31.2967V32.5521Z" fill="#516389"/>
<path d="M117.012 34.4834H124.976V35.2123C123.26 35.7204 118.916 36.9407 118.109 37.1027V37.1248C119.243 37.0843 120.363 37.0659 121.655 37.0659H124.976V37.6347H117.012V36.926C118.883 36.3812 123.276 35.1792 124.118 34.9785V34.9675C123.162 35.0172 121.757 35.0559 120.316 35.0559H117.012V34.4834Z" fill="#516389"/>
<path d="M119.183 39.1056H118.743C117.885 39.1056 117.434 39.4222 117.434 40.0462C117.434 40.6813 117.819 40.9776 118.936 40.9776C119.921 40.9776 120.35 40.7586 120.988 39.9266C121.649 39.0743 122.028 38.6583 123.198 38.6583C124.18 38.6583 125.084 38.951 125.075 40.0757C125.066 41.0678 124.455 41.4433 123.342 41.4433H123.01V40.858H123.325C124.061 40.858 124.55 40.7034 124.55 40.061C124.55 39.4112 123.98 39.2455 123.288 39.2455C122.424 39.2455 122.142 39.4222 121.561 40.1751C120.757 41.2243 120.323 41.5648 119.007 41.5648C117.894 41.5648 116.909 41.2961 116.909 40.0462C116.909 38.8866 117.685 38.5166 118.734 38.5166H119.182V39.1056H119.183Z" fill="#516389"/>
<path d="M124.976 42.5233V45.0764H124.437V43.1087H121.501V44.9512H120.961V43.1087H117.012V42.5215H124.976V42.5233Z" fill="#516389"/>
<path d="M121.019 48.215V46.3982H117.548V48.4396L117.011 48.3531V45.811H124.975V48.3199H124.436V46.3964H121.554V48.2132H121.019V48.215Z" fill="#516389"/>
<path d="M120.84 49.761H117.012V49.1738H124.976V50.3556C124.976 51.5465 124.439 52.049 123.203 52.049H122.797C121.814 52.049 121.279 51.7508 121.11 51.2354C120.943 51.7711 120.532 51.9865 119.478 51.9865C118.79 51.9865 117.53 51.9736 117.012 52.0674V51.4876C117.519 51.3901 118.88 51.4029 119.423 51.4029C120.496 51.4029 120.839 51.2428 120.839 50.3979V49.761H120.84ZM121.356 49.761V50.4494C121.356 51.2833 121.926 51.4545 122.768 51.4545H123.179C123.982 51.4545 124.461 51.206 124.461 50.3353V49.7629H121.356V49.761Z" fill="#516389"/>
</g>
<defs>
<clipPath id="clip0_3055_7763">
<rect width="100" height="30" fill="white" transform="translate(25.5 22.5)"/>
</clipPath>
</defs>
</svg>
