<svg width="151" height="75" viewBox="0 0 151 75" fill="none" xmlns="http://www.w3.org/2000/svg">
<path d="M97.7167 28.3006C99.8755 28.3006 101.624 26.4674 101.624 24.207C101.624 21.9466 99.8744 20.1099 97.7167 20.1099C95.5589 20.1099 93.8132 21.9454 93.8132 24.207C93.8131 24.7447 93.9139 25.2771 94.11 25.7739C94.3061 26.2707 94.5936 26.7221 94.9561 27.1024C95.3186 27.4826 95.7489 27.7842 96.2226 27.99C96.6963 28.1958 97.2039 28.3018 97.7167 28.3018V28.3006ZM67.7933 30.5085C67.6169 30.9859 66.348 34.7333 63.2787 38.6276V21.9717L55.1019 23.6664V53.8609H63.2798V44.528C65.6492 48.2516 66.8191 53.8609 66.8191 53.8609H76.6141C75.6468 49.636 71.4076 41.8487 71.4076 41.8487C73.9263 38.4419 75.8676 34.6064 77.1467 30.5097L67.7933 30.5085ZM89.2907 30.1934C81.9674 30.4404 78.2484 33.886 78.2484 40.7364V53.8597H86.2396V43.1591C86.2396 39.0584 86.7517 37.3112 91.3926 37.1322V30.3175C90.6119 30.1433 89.2907 30.1982 89.2907 30.1982V30.1934ZM41.3887 33.8382C40.3872 33.7702 38.0679 33.6115 38.0679 31.4227C38.0679 28.7815 41.4057 28.7815 42.6587 28.7815C44.8608 28.7815 47.7116 29.4618 49.7486 30.1027C50.4424 30.4053 51.1437 30.6887 51.8517 30.9524L51.9428 30.9787V23.7416L51.8199 23.7034C49.4163 22.8202 46.6225 21.9729 41.441 21.9729C32.5075 21.9729 29.3438 27.4293 29.3438 32.1053C29.3438 34.8001 30.4454 41.1434 40.6751 41.875C41.5423 41.9311 43.8434 42.0695 43.8434 44.3335C43.8434 46.2013 41.9588 47.3028 38.7905 47.3028C35.3196 47.3028 31.9476 46.3743 29.9025 45.4935V52.9443C32.9661 53.7857 36.4189 54.207 40.4669 54.207C49.2013 54.207 53.1127 49.0441 53.1127 43.9265C53.1127 38.1239 48.7358 34.355 41.3909 33.8382H41.3887ZM93.7586 53.8644H101.684V30.5371H93.7563L93.7586 53.8644ZM116.608 23.4611V53.8644H124.535V21.9752L116.608 23.4611ZM105.042 23.4611L112.961 21.9752V53.8644H105.042V23.4587V23.4611Z" fill="#516389"/>
</svg>
