<svg width="151" height="50" viewBox="0 0 151 50" fill="none" xmlns="http://www.w3.org/2000/svg">
<g clip-path="url(#clip0_3055_7658)">
<path d="M69.1245 40.6736H61.1335L66.1303 9.48633H74.1188L69.1245 40.6736Z" fill="#516389"/>
<path d="M98.082 10.2503C95.7962 9.36166 93.3661 8.91137 90.9168 8.92257C83.0277 8.92257 77.4719 13.1689 77.438 19.2407C77.3725 23.7201 81.4159 26.2076 84.4394 27.7017C87.5303 29.2279 88.5806 30.2239 88.5806 31.5847C88.5493 33.6743 86.0829 34.6371 83.783 34.6371C81.187 34.7105 78.6127 34.1409 76.2851 32.9781L75.233 32.4799L74.1152 39.4809C75.9886 40.3424 79.4411 41.1074 83.0247 41.141C91.4073 41.141 96.8643 36.9603 96.928 30.49C96.9597 26.9399 94.8251 24.2193 90.2246 21.9964C87.4305 20.5695 85.7194 19.6071 85.7194 18.147C85.7523 16.8198 87.1668 15.46 90.321 15.46C92.3685 15.3995 94.403 15.8077 96.272 16.6538L96.9946 16.9851L98.0809 10.2509L98.082 10.2503Z" fill="#516389"/>
<path d="M108.701 29.6248C109.359 27.8329 111.89 20.899 111.89 20.899C111.857 20.9657 112.546 19.0742 112.941 17.9133L113.499 20.6003C113.499 20.6003 115.012 28.0655 115.34 29.6248H108.701ZM118.562 9.48633H112.383C110.477 9.48633 109.029 10.0497 108.207 12.0741L96.3397 40.6732H104.721C104.721 40.6732 106.101 36.8238 106.398 35.9947H116.655C116.885 37.0899 117.609 40.6732 117.609 40.6732H125.007L118.562 9.48633Z" fill="#516389"/>
<path d="M54.4616 9.4873L46.6371 30.7539L45.782 26.441C44.3355 21.4644 39.7992 16.0573 34.7369 13.3683L41.903 40.6415H50.3513L62.9083 9.4873H54.4616Z" fill="#516389"/>
<path d="M39.3729 9.48724H26.5199L26.3883 10.1173C36.4145 12.7056 43.0548 18.9438 45.7833 26.442L42.9893 12.1072C42.5295 10.1153 41.1159 9.55086 39.3734 9.48584L39.3729 9.48724Z" fill="#516389"/>
</g>
<defs>
<clipPath id="clip0_3055_7658">
<rect width="100" height="33" fill="white" transform="translate(25.5 8.5)"/>
</clipPath>
</defs>
</svg>
