<svg width="219" height="81" viewBox="0 0 219 81" fill="none" xmlns="http://www.w3.org/2000/svg">
<g filter="url(#filter0_d_3057_14918)">
<path d="M4.19702 20.9435C4.19702 9.89779 13.1513 0.943481 24.197 0.943481H194.803C205.849 0.943481 214.803 9.89779 214.803 20.9435V52.9435C214.803 63.9892 205.849 72.9435 194.803 72.9435H24.197C13.1513 72.9435 4.19702 63.9892 4.19702 52.9435V20.9435Z" fill="white" fill-opacity="0.29" shape-rendering="crispEdges"/>
<path d="M24.197 1.44348H194.802C205.572 1.44348 214.302 10.1739 214.302 20.9435V52.9435C214.302 63.713 205.572 72.4435 194.802 72.4435H24.197C13.4275 72.4435 4.69702 63.713 4.69702 52.9435V20.9435C4.69702 10.1739 13.4275 1.44348 24.197 1.44348Z" stroke="white" shape-rendering="crispEdges"/>
<g clip-path="url(#clip0_3057_14918)">
<path d="M48.4783 16.9435H31.9158C25.4437 16.9435 20.197 22.1901 20.197 28.6622V45.2247C20.197 51.6968 25.4437 56.9435 31.9158 56.9435H48.4783C54.9504 56.9435 60.197 51.6968 60.197 45.2247V28.6622C60.197 22.1901 54.9504 16.9435 48.4783 16.9435Z" fill="url(#paint0_linear_3057_14918)"/>
<path d="M44.7119 25.7552L36.6791 29.1662L30.0486 47.8724L39.1197 56.9435H48.4798C54.9517 56.9435 60.1986 51.6967 60.1986 45.2248V41.2412L44.7126 25.7552H44.7119Z" fill="url(#paint1_linear_3057_14918)"/>
<path d="M46.4861 48.3629C44.5962 48.3629 43.5751 48.059 43.4236 47.4504L42.3486 43.2473H37.1681L36.2236 47.2871C36.0931 47.9614 35.0509 48.2973 33.0955 48.2973C32.0533 48.2973 31.2814 48.2379 30.7822 48.1176C30.2822 47.9989 30.033 47.9059 30.033 47.841L35.7994 25.784C35.7994 25.6106 37.2869 25.5231 40.2634 25.5231C43.24 25.5231 44.7267 25.6098 44.7267 25.784L50.3634 47.8746C50.3634 48.027 49.8634 48.1465 48.865 48.2332C47.8658 48.3192 47.0728 48.3629 46.4861 48.3629ZM37.9822 39.1098H41.4033L39.9369 32.3653H39.7416L37.9822 39.1098Z" fill="white"/>
</g>
<path d="M82.8877 44.6033H67.197V41.6548L76.5991 32.727H67.2589V29.263H82.8053V32.2115L73.0115 41.0981H82.8877V44.6033Z" fill="white"/>
<path d="M94.5827 44.8301C87.0569 44.8301 86.1909 40.1084 86.1909 37.0569V29.263H90.4383V36.9538C90.4383 38.7063 90.9332 41.2218 94.8301 41.2218H94.9332C98.8507 41.2218 99.2837 38.7063 99.2837 36.9538V29.263H103.51V37.0569C103.51 40.129 102.418 44.8301 95.1806 44.8301H94.5827Z" fill="white"/>
<path d="M111.442 32.6445V35.9022H117.359C119.091 35.9022 119.566 35.16 119.566 34.2734V34.2321C119.566 33.3661 119.091 32.6445 117.359 32.6445H111.442ZM120.782 37.2218C122.865 37.696 124.122 38.9538 124.122 41.2012V42.7888C124.122 43.9435 124.246 44.2527 124.37 44.5002V44.6033H119.978C119.916 44.5002 119.834 44.2115 119.834 43.5311V42.2734C119.834 40.294 119.112 39.3868 116.968 39.3868H111.442V44.6033H107.194V29.263H117.524C123.359 29.263 124.019 31.696 124.019 33.3661V33.5723C124.019 35.4899 122.7 36.7888 120.782 37.2218Z" fill="white"/>
<path d="M135.43 44.8713H134.832C127.637 44.8713 126.812 41.6136 126.812 39.7785V39.5517H131.43C131.492 40.2321 131.781 41.7579 135.039 41.7579H135.183C138.379 41.7579 138.791 40.7888 138.791 39.9228C138.791 39.0156 138.193 38.4177 135.657 38.3352L133.616 38.2734C128.585 38.129 126.977 36.1084 126.977 33.7991V33.6136C126.977 31.2424 128.255 29.0775 134.606 29.0775H135.307C142.09 29.0775 143.018 31.5517 143.018 33.5723V33.7991H138.461C138.358 33.1187 137.967 32.1084 135.018 32.1084H134.812C132.09 32.1084 131.451 32.6239 131.451 33.4692C131.451 34.2527 132.008 34.8301 134.42 34.9332L136.544 35.0156C142.008 35.2218 143.327 37.0156 143.327 39.5105V39.7579C143.327 42.0053 142.296 44.8713 135.43 44.8713Z" fill="white"/>
<path d="M146.499 29.263H150.746V40.995H160.127V44.6033H146.499V29.263Z" fill="white"/>
<path d="M170.942 29.0156H171.849C179.024 29.0156 181.065 33.2424 181.065 36.5826V37.2012C181.065 40.5002 179.024 44.8507 171.849 44.8507H170.942C163.766 44.8507 161.725 40.5002 161.725 37.2012V36.5826C161.725 33.2424 163.766 29.0156 170.942 29.0156ZM176.653 36.7476C176.653 34.8507 175.725 32.5208 171.395 32.5208C167.106 32.5208 166.137 34.8507 166.137 36.7476V37.0362C166.137 38.8919 167.168 41.3249 171.395 41.3249C175.704 41.3249 176.653 38.8919 176.653 37.0362V36.7476Z" fill="white"/>
<path d="M188.638 44.6033V32.7682H182.7V29.263H198.803V32.7682H192.865V44.6033H188.638Z" fill="white"/>
</g>
<defs>
<filter id="filter0_d_3057_14918" x="0.197021" y="0.943481" width="218.606" height="80" filterUnits="userSpaceOnUse" color-interpolation-filters="sRGB">
<feFlood flood-opacity="0" result="BackgroundImageFix"/>
<feColorMatrix in="SourceAlpha" type="matrix" values="0 0 0 0 0 0 0 0 0 0 0 0 0 0 0 0 0 0 127 0" result="hardAlpha"/>
<feOffset dy="4"/>
<feGaussianBlur stdDeviation="2"/>
<feComposite in2="hardAlpha" operator="out"/>
<feColorMatrix type="matrix" values="0 0 0 0 0 0 0 0 0 0.0745098 0 0 0 0 0.2 0 0 0 0.25 0"/>
<feBlend mode="normal" in2="BackgroundImageFix" result="effect1_dropShadow_3057_14918"/>
<feBlend mode="normal" in="SourceGraphic" in2="effect1_dropShadow_3057_14918" result="shape"/>
</filter>
<linearGradient id="paint0_linear_3057_14918" x1="23.6291" y1="20.3755" x2="56.765" y2="53.5115" gradientUnits="userSpaceOnUse">
<stop stop-color="#54BDFF"/>
<stop offset="1" stop-color="#0042C7"/>
</linearGradient>
<linearGradient id="paint1_linear_3057_14918" x1="33.2056" y1="32.6396" x2="55.4212" y2="54.8553" gradientUnits="userSpaceOnUse">
<stop stop-opacity="0.5"/>
<stop offset="1" stop-opacity="0"/>
</linearGradient>
<clipPath id="clip0_3057_14918">
<rect width="40" height="40" fill="white" transform="translate(20.197 16.9435)"/>
</clipPath>
</defs>
</svg>
