<svg width="32" height="32" viewBox="0 0 32 32" fill="none" xmlns="http://www.w3.org/2000/svg">
<path d="M0 4C0 1.79086 1.79086 0 4 0H28C30.2091 0 32 1.79086 32 4V28C32 30.2091 30.2091 32 28 32H4C1.79086 32 0 30.2091 0 28V4Z" fill="white"/>
<path d="M16.3887 7.1591L20.8391 11.5592C21.0536 11.7713 21.0536 12.1155 20.8391 12.3276L20.3199 12.8409C20.1056 13.0528 19.7584 13.053 19.5436 12.8418L16.0001 9.35448L12.4564 12.8415C12.2415 13.053 11.8944 13.0526 11.68 12.8406L11.1609 12.3274C10.9464 12.1152 10.9464 11.7711 11.1609 11.559L15.6115 7.1591C15.8261 6.94697 16.1741 6.94697 16.3887 7.1591Z" fill="#030A16"/>
<path d="M16.3887 13.1591L20.8391 17.5592C21.0536 17.7713 21.0536 18.1155 20.8391 18.3276L20.3199 18.8409C20.1056 19.0528 19.7584 19.053 19.5436 18.8418L16.0001 15.3545L12.4564 18.8415C12.2415 19.053 11.8944 19.0526 11.68 18.8406L11.1609 18.3274C10.9464 18.1152 10.9464 17.7711 11.1609 17.559L15.6115 13.1591C15.8261 12.947 16.1741 12.947 16.3887 13.1591Z" fill="#030A16"/>
<path d="M16.3887 19.1591L20.8391 23.5592C21.0536 23.7713 21.0536 24.1155 20.8391 24.3276L20.3199 24.8409C20.1056 25.0528 19.7584 25.053 19.5436 24.8418L16.0001 21.3545L12.4564 24.8415C12.2415 25.053 11.8944 25.0526 11.68 24.8406L11.1609 24.3274C10.9464 24.1152 10.9464 23.7711 11.1609 23.559L15.6115 19.1591C15.8261 18.947 16.1741 18.947 16.3887 19.1591Z" fill="#030A16"/>
</svg>
