<svg width="24" height="24" viewBox="0 0 24 24" fill="none" xmlns="http://www.w3.org/2000/svg">
<path d="M17.4091 7L6.58979 7C6.48025 7.00035 6.37288 7.03056 6.27923 7.08738C6.18558 7.14421 6.10921 7.2255 6.05832 7.32251C6.00744 7.41951 5.98398 7.52856 5.99046 7.63791C5.99694 7.74726 6.03312 7.85277 6.09511 7.94308L11.5048 15.757C11.729 16.081 12.2687 16.081 12.4935 15.757L17.9032 7.94308C17.9658 7.85296 18.0025 7.74739 18.0093 7.63786C18.0162 7.52833 17.9929 7.41902 17.9419 7.32181C17.891 7.2246 17.8144 7.1432 17.7205 7.08647C17.6265 7.02973 17.5188 6.99983 17.4091 7Z" fill="white"/>
</svg>
